<?xml version="1.0" standalone="no"?>
<!DOCTYPE svg PUBLIC "-//W3C//DTD SVG 1.1//EN" "http://www.w3.org/Graphics/SVG/1.1/DTD/svg11.dtd" >
<svg>
<metadata>
Created by FontForge 20110222 at Sun Jun 15 15:51:01 2014
 By Orthosie Webhosting
Copyright 1999 eBoy, Svend Smital, \(Arno Drescher, 1930\), published by FontShop International for the FontFont library. Super Grotesk is a trademark of FSI, Fonts and Software GmbH. V2.0. http://www.fontfont.de
</metadata>
<defs>
<font id="SuperGroteskARegular" horiz-adv-x="520" >
  <font-face 
    font-family="SuperGroteskARegular"
    font-weight="400"
    font-stretch="normal"
    units-per-em="1000"
    panose-1="2 0 5 3 6 0 0 2 0 3"
    ascent="800"
    descent="-200"
    x-height="400"
    cap-height="720"
    bbox="-10 -220 1050 920"
    underline-thickness="0"
    underline-position="0"
    unicode-range="U+0020-FB02"
  />
<missing-glyph horiz-adv-x="250" 
 />
    <glyph glyph-name="fi" unicode="fi" horiz-adv-x="465" 
d="M325 0v335h-170v-335h-70v335h-60l10 65h50v180q0 68 31 109t99 41h40v-65h-20q-35 0 -57.5 -16.5t-22.5 -68.5v-180h240v-400h-70zM325 500v80h70v-80h-70z" />
    <glyph glyph-name="fl" unicode="fl" horiz-adv-x="465" 
d="M325 0v665h-90q-35 0 -57.5 -16.5t-22.5 -68.5v-180h100v-65h-100v-335h-70v335h-60l10 65h50v180q0 68 31 109t99 41h180v-730h-70z" />
    <glyph glyph-name=".notdef" horiz-adv-x="250" 
 />
    <glyph glyph-name=".null" horiz-adv-x="0" 
 />
    <glyph glyph-name="nonmarkingreturn" horiz-adv-x="250" 
 />
    <glyph glyph-name="space" unicode=" " horiz-adv-x="250" 
 />
    <glyph glyph-name="space" unicode="&#xa0;" horiz-adv-x="250" 
 />
    <glyph glyph-name="exclam" unicode="!" horiz-adv-x="255" 
d="M90 0v85h75v-85h-75zM90 160v560h75v-560h-75z" />
    <glyph glyph-name="quotedbl" unicode="&#x22;" horiz-adv-x="260" 
d="M105 500h-60l-5 220h70zM215 500h-60l-5 220h70z" />
    <glyph glyph-name="numbersign" unicode="#" horiz-adv-x="700" 
d="M430 455h-160v-210h160v210zM500 180v-180h-70v180h-160v-180h-70v180h-110v65h110v210h-110v65h110v160h70v-160h160v160h70v-160h110v-65h-110v-210h110v-65h-110z" />
    <glyph glyph-name="dollar" unicode="$" horiz-adv-x="496" 
d="M369 171q0 25 -8 45.5t-22.5 37t-33.5 30.5t-40 26v-263q104 15 104 124zM202 635q-37 -7 -61 -31.5t-24 -63.5q0 -46 24 -75t61 -51v221zM431 171q0 -82 -42 -130.5t-124 -56.5v-74h-63v74q-32 4 -57 16t-45.5 29t-36.5 37.5t-28 41.5l54 36q23 -40 48.5 -64.5
t64.5 -31.5v295q-29 15 -55.5 32.5t-47.5 40.5t-33.5 53t-12.5 71q0 37 12 65t32.5 47.5t47.5 31.5t57 16v74h63v-75q42 -7 74.5 -28t55.5 -50l-44 -45q-17 22 -37.5 37.5t-48.5 21.5v-254q30 -16 60 -33.5t53.5 -41.5t38 -56.5t14.5 -78.5z" />
    <glyph glyph-name="percent" unicode="%" horiz-adv-x="800" 
d="M660 150q0 53 -20 81.5t-50 28.5t-50 -28.5t-20 -81.5t20 -81.5t50 -28.5t50 28.5t20 81.5zM720 150q0 -38 -10.5 -69t-28.5 -53.5t-41.5 -35t-49.5 -12.5t-49.5 12.5t-41.5 35t-28.5 53.5t-10.5 69q0 37 10.5 68.5t28.5 54t41.5 35t49.5 12.5t49.5 -12.5t41.5 -35
t28.5 -54t10.5 -68.5zM230 0h-70l410 680h70zM280 530q0 53 -20 81.5t-50 28.5t-50 -28.5t-20 -81.5t20 -81.5t50 -28.5t50 28.5t20 81.5zM340 530q0 -38 -10.5 -69t-28.5 -53.5t-41.5 -35t-49.5 -12.5t-49.5 12.5t-41.5 35t-28.5 53.5t-10.5 69q0 37 10.5 68.5t28.5 54
t41.5 35t49.5 12.5t49.5 -12.5t41.5 -35t28.5 -54t10.5 -68.5z" />
    <glyph glyph-name="ampersand" unicode="&#x26;" horiz-adv-x="680" 
d="M258 370q-27 -13 -51.5 -26.5t-43.5 -31t-30 -40.5t-11 -54q0 -46 18.5 -80t48 -55.5t67 -30.5t75.5 -4.5t74 23t62 51.5zM375 555q0 32 -21 54t-59 22t-59 -22t-21 -54q0 -25 19 -50t44 -54q21 9 38.5 19t30.5 22t20.5 27.5t7.5 35.5zM568 0l-60 70q-38 -42 -90.5 -65
t-113.5 -23q-44 0 -87.5 14t-78.5 42.5t-56.5 73t-21.5 106.5q0 46 13 79t34.5 57t49 40.5t56.5 29.5q-20 25 -32.5 42t-20 31.5t-10 27.5t-2.5 30q0 64 41.5 101t105.5 37q32 0 58.5 -10t46 -28t30.5 -43.5t11 -56.5t-10 -54.5t-26.5 -42t-38.5 -33t-46 -26.5l178 -215
q20 54 14 101.5t-19 88.5h71q13 -39 17 -73.5t0.5 -65.5t-13 -58.5t-21.5 -52.5l103 -124h-82z" />
    <glyph glyph-name="quotesingle" unicode="'" horiz-adv-x="150" 
d="M105 500h-60l-5 220h70z" />
    <glyph glyph-name="parenleft" unicode="(" horiz-adv-x="340" 
d="M250 -120q-41 41 -76 91.5t-60.5 108t-39.5 122t-14 133.5t14 133.5t39.5 122t60.5 108t76 91.5l50 -50q-41 -41 -73 -92t-53.5 -105t-32.5 -107.5t-11 -100.5t11 -100.5t32.5 -107.5t53.5 -105t73 -92z" />
    <glyph glyph-name="parenright" unicode=")" horiz-adv-x="340" 
d="M280 335q0 -69 -14 -133.5t-39.5 -122t-60.5 -108t-76 -91.5l-50 50q41 41 73 92t53.5 105t32.5 107.5t11 100.5t-11 100.5t-32.5 107.5t-53.5 105t-73 92l50 50q41 -41 76 -91.5t60.5 -108t39.5 -122t14 -133.5z" />
    <glyph glyph-name="asterisk" unicode="*" horiz-adv-x="448" 
d="M348 454l-95 56l1 -110h-60l1 110l-95 -56l-30 52l97 54l-97 54l30 52l95 -56l-1 110h60l-1 -110l95 56l30 -52l-97 -54l97 -54z" />
    <glyph glyph-name="plus" unicode="+" horiz-adv-x="550" 
d="M310 270v-180h-70v180h-180v70h180v180h70v-180h180v-70h-180z" />
    <glyph glyph-name="comma" unicode="," horiz-adv-x="255" 
d="M165 10q0 -49 -21 -85t-44 -55l-40 20q19 30 24.5 60t5.5 60v75h75v-75z" />
    <glyph glyph-name="hyphen" unicode="-" horiz-adv-x="295" 
d="M40 180v70h215v-70h-215z" />
    <glyph glyph-name="hyphen" unicode="&#xad;" horiz-adv-x="295" 
d="M40 180v70h215v-70h-215z" />
    <glyph glyph-name="period" unicode="." horiz-adv-x="255" 
d="M90 0v85h75v-85h-75z" />
    <glyph glyph-name="slash" unicode="/" horiz-adv-x="380" 
d="M70 -100h-70l310 880h70z" />
    <glyph glyph-name="zero" unicode="0" 
d="M410 200q0 34 -12 61.5t-33 47t-48 30.5t-57 11t-57 -11t-48 -30.5t-33 -47t-12 -61.5t12 -61.5t33 -47t48 -30.5t57 -11t57 11t48 30.5t33 47t12 61.5zM480 200q0 -49 -16 -88.5t-45 -67.5t-69.5 -43.5t-89.5 -15.5t-89.5 15.5t-69.5 43.5t-45 67.5t-16 88.5t16 88.5
t45 67.5t69.5 43.5t89.5 15.5t89.5 -15.5t69.5 -43.5t45 -67.5t16 -88.5z" />
    <glyph glyph-name="one" unicode="1" horiz-adv-x="300" 
d="M150 0v310l-120 -110v100l120 100h70v-400h-70z" />
    <glyph glyph-name="two" unicode="2" horiz-adv-x="450" 
d="M390 0h-340v50q0 47 20.5 76.5t52 48t67.5 29.5t67.5 21.5t52 25t20.5 39.5q0 23 -23 41.5t-77 18.5q-38 0 -79 -20t-71 -50l-40 60q19 15 38 28.5t41.5 24t49.5 16.5t61 6q75 0 122.5 -32.5t47.5 -92.5q0 -43 -20 -68.5t-50 -41.5t-65 -26t-65 -20.5t-50 -24.5t-20 -39
h270z" />
    <glyph glyph-name="three" unicode="3" horiz-adv-x="430" 
d="M410 -30q0 -37 -14.5 -70.5t-41.5 -59t-66 -40.5t-88 -15q-38 0 -70 10t-58 27t-46.5 39.5t-35.5 48.5l50 43q30 -48 68.5 -75.5t91.5 -27.5q26 0 51.5 7.5t45 22.5t31.5 37.5t12 52.5q0 34 -13.5 58.5t-35 40.5t-48.5 23.5t-53 7.5h-30v70h30q22 0 44 6t38.5 18t27 31
t10.5 45q0 38 -32 59t-78 21q-45 0 -76 -20t-54 -50l-50 40q30 45 76 70t104 25q45 0 78.5 -11.5t56 -31t34 -46t11.5 -56.5t-8.5 -52.5t-21.5 -39t-29 -27t-31 -16.5q15 -3 35.5 -13.5t39.5 -30.5t32 -50t13 -71z" />
    <glyph glyph-name="four" unicode="4" horiz-adv-x="490" 
d="M310 300l-190 -235h190v235zM380 0v-200h-70v200h-320l320 400h70v-335h100v-65h-100z" />
    <glyph glyph-name="five" unicode="5" horiz-adv-x="470" 
d="M440 10q0 -53 -17.5 -94.5t-47.5 -70.5t-70 -44.5t-85 -15.5q-76 0 -128 32.5t-82 77.5l50 50q11 -19 27.5 -36t37.5 -30t45 -21t50 -8q34 0 61.5 13.5t47 36t30.5 51.5t11 59q0 37 -12 66t-31.5 49t-45 30t-51.5 10t-47.5 -3t-40 -8.5t-36 -14t-36.5 -19.5l20 280h296
l-6 -65h-230l-10 -125q19 10 42 15t58 5q34 0 69.5 -12t64.5 -38t47.5 -68t18.5 -102z" />
    <glyph glyph-name="six" unicode="6" 
d="M410 200q0 34 -12 61.5t-33 47t-48 30.5t-57 11t-57 -11t-48 -30.5t-33 -47.5t-12 -61q0 -34 12 -61.5t33 -47t48 -30.5t57 -11t57 11t48 30.5t33 47t12 61.5zM480 200q0 -49 -16 -88.5t-45 -67.5t-69.5 -43.5t-89.5 -15.5t-89.5 15.5t-69.5 43.5t-45 67.5t-16 88.5
q0 60 23 106.5t57 93.5l200 280h90l-210 -280q45 19 94.5 14t90.5 -31.5t68 -72.5t27 -110z" />
    <glyph glyph-name="seven" unicode="7" horiz-adv-x="445" 
d="M190 -220h-80l255 555h-375l15 65h430v-65z" />
    <glyph glyph-name="eight" unicode="8" 
d="M410 210q0 22 -9.5 47t-28 45.5t-47 34t-65.5 13.5q-38 0 -66 -13.5t-46.5 -35t-28 -48.5t-9.5 -53q0 -29 10.5 -56t30 -48t47 -33.5t62.5 -12.5q34 0 62 13t47.5 35t30 51t10.5 61zM380 530q0 19 -7.5 37.5t-23 33.5t-38 24.5t-52.5 9.5t-52.5 -9t-37.5 -23.5t-22 -33.5
t-7 -39q0 -54 32 -83.5t87 -29.5q53 0 87 29.5t34 83.5zM480 210q0 -53 -16 -94.5t-45 -70.5t-69.5 -44.5t-89.5 -15.5t-89.5 15.5t-69.5 43.5t-45 67.5t-16 88.5q0 37 10 67.5t25.5 53.5t34 39t35.5 25q-30 20 -52.5 55.5t-22.5 89.5q0 34 13 64.5t37 54t59 37.5t80 14
t80.5 -14t60 -37.5t37.5 -54t13 -64.5q0 -51 -23.5 -88t-54.5 -57q18 -9 37 -23.5t35 -35.5t26 -50t10 -66z" />
    <glyph glyph-name="nine" unicode="9" 
d="M410 200q0 34 -12 61.5t-33 47t-48 30.5t-57 11t-57 -11t-48 -30.5t-33 -47t-12 -61.5t12 -61.5t33 -47t48 -30.5t57 -11t57 11t48 30.5t33 47.5t12 61zM480 200q0 -60 -23 -106.5t-57 -93.5l-158 -220h-87l165 220q-45 -19 -94.5 -14t-90.5 31.5t-68 72.5t-27 110
q0 49 16 88.5t45 67.5t69.5 43.5t89.5 15.5t89.5 -15.5t69.5 -43.5t45 -67.5t16 -88.5z" />
    <glyph glyph-name="colon" unicode=":" horiz-adv-x="255" 
d="M90 0v85h75v-85h-75zM90 315v85h75v-85h-75z" />
    <glyph glyph-name="semicolon" unicode=";" horiz-adv-x="255" 
d="M165 10q0 -49 -21 -85t-44 -55l-40 20q19 30 24.5 60t5.5 60v75h75v-75zM90 315v85h75v-85h-75z" />
    <glyph glyph-name="semicolon" unicode="&#x37e;" horiz-adv-x="255" 
d="M165 10q0 -49 -21 -85t-44 -55l-40 20q19 30 24.5 60t5.5 60v75h75v-75zM90 315v85h75v-85h-75z" />
    <glyph glyph-name="less" unicode="&#x3c;" horiz-adv-x="550" 
d="M60 275v60l430 230v-80l-350 -180l350 -180v-80z" />
    <glyph glyph-name="equal" unicode="=" horiz-adv-x="550" 
d="M60 190v70h430v-70h-430zM60 350v70h430v-70h-430z" />
    <glyph glyph-name="greater" unicode="&#x3e;" horiz-adv-x="550" 
d="M60 45v80l350 180l-350 180v80l430 -230v-60z" />
    <glyph glyph-name="question" unicode="?" horiz-adv-x="490" 
d="M190 0v85h75v-85h-75zM450 550q0 -47 -16 -79.5t-40 -57.5t-50 -47.5t-47 -50t-31 -64.5t-1 -91h-75q-11 58 -2 100.5t30 74.5t48 57t51 49t41 49.5t17 59.5q0 25 -10 47t-28 38t-42.5 25.5t-54.5 9.5q-27 0 -51.5 -10.5t-43 -29t-29.5 -44t-11 -55.5l-75 14
q4 45 20.5 81t44 61.5t64.5 39t81 13.5q43 0 81.5 -11.5t67 -35t45 -59.5t16.5 -84z" />
    <glyph glyph-name="at" unicode="@" horiz-adv-x="856" 
d="M518 198q0 37 -10 63t-27.5 42t-40.5 23t-48 7q-26 0 -48 -9.5t-38.5 -27.5t-26 -43t-9.5 -55t9.5 -55t26 -43t38.5 -27.5t48 -9.5q25 0 48 7t40.5 23t27.5 42t10 63zM806 234q0 -109 -39 -167t-114 -58q-27 0 -54 14t-56 44q-20 -22 -38 -35t-36.5 -20t-37.5 -9.5
t-39 -2.5q-41 0 -75.5 14.5t-59.5 40.5t-39.5 62.5t-14.5 80.5t14.5 80.5t39.5 62.5t59.5 40.5t75.5 14.5t69.5 -13.5t52.5 -40.5v45h67v-234q0 -24 8 -39.5t20 -24.5t26 -13t27 -4q17 0 31 12.5t24 34t15.5 49t5.5 57.5q0 65 -24 118.5t-65.5 91t-98 58t-122.5 20.5
t-122.5 -24.5t-98 -67.5t-65.5 -100t-24 -123t24 -123t65.5 -100t98 -67.5t122.5 -24.5q30 0 61 6.5t60 17.5t53.5 26.5t41.5 33.5l81 -21q-61 -61 -131.5 -93.5t-165.5 -32.5q-78 0 -147 29.5t-120.5 81t-81 120.5t-29.5 147t29.5 147t81 120.5t120.5 81t147 29.5t147 -24
t120 -68.5t81 -108t30 -141.5z" />
    <glyph glyph-name="A" unicode="A" horiz-adv-x="580" 
d="M290 630l-108 -340h216zM490 0l-70 220h-260l-70 -220h-80l245 720h70l245 -720h-80z" />
    <glyph glyph-name="B" unicode="B" horiz-adv-x="540" 
d="M420 200q0 34 -11.5 60t-31.5 44t-47.5 27t-59.5 9h-105v-270h105q34 0 61.5 10t47 27.5t30.5 41t11 51.5zM385 540q0 30 -11 51t-29 34t-41.5 19t-48.5 6h-90v-240h90q61 0 95.5 35.5t34.5 94.5zM490 200q0 -47 -16.5 -84.5t-46 -63t-69.5 -39t-86 -13.5h-182v720h172
q44 0 80.5 -13t62.5 -36.5t40.5 -57t14.5 -73.5q0 -54 -25 -98t-68 -64q21 -7 43 -20.5t40 -35t29 -52t11 -70.5z" />
    <glyph glyph-name="C" unicode="C" horiz-adv-x="688" 
d="M653 90q-54 -54 -114.5 -82t-128.5 -28q-81 0 -147.5 27.5t-113.5 78t-73 120.5t-26 154t26 154t73.5 120.5t113.5 78t147 27.5q75 0 134 -31t100 -79l-54 -48q-10 15 -28 30.5t-41.5 28t-52 21t-58.5 8.5q-66 0 -118.5 -23.5t-89.5 -65.5t-57 -98.5t-20 -122.5
t23 -122.5t62 -98.5t90.5 -65.5t109.5 -23.5q33 0 59.5 7t50 19.5t44 29.5t40.5 38z" />
    <glyph glyph-name="D" unicode="D" horiz-adv-x="665" 
d="M540 360q0 75 -28 130t-70.5 90.5t-92.5 52.5t-94 17h-90v-580h90q44 0 94 17t92.5 53t70.5 90.5t28 129.5zM615 360q0 -95 -33.5 -163t-85.5 -111.5t-115.5 -64.5t-123.5 -21h-167v720h167q60 0 123.5 -20.5t115.5 -64.5t85.5 -112t33.5 -163z" />
    <glyph glyph-name="E" unicode="E" horiz-adv-x="494" 
d="M435 0h-345v720h327l9 -70h-261v-245h225v-70h-225v-265h279z" />
    <glyph glyph-name="F" unicode="F" horiz-adv-x="474" 
d="M165 650v-245h234l1 -70h-235v-335h-75v720h345l9 -70h-279z" />
    <glyph glyph-name="G" unicode="G" horiz-adv-x="790" 
d="M671 540q-46 60 -108.5 95t-152.5 35q-58 0 -110 -25t-91 -68t-61.5 -99t-22.5 -118t23 -118t62 -99t90.5 -68t109.5 -25q68 0 127 25.5t106 86.5v169h-195l18 69h249v-275q-21 -28 -50 -54t-67 -46.5t-85 -32.5t-103 -12q-75 0 -140.5 30t-114.5 81.5t-77 120.5t-28 148
t28 148t77 120.5t114.5 81.5t140.5 30q60 0 109 -12.5t88 -33.5t68 -49t50 -60z" />
    <glyph glyph-name="H" unicode="H" horiz-adv-x="705" 
d="M540 0v330h-375v-330h-75v720h75v-320h375v320h75v-720h-75z" />
    <glyph glyph-name="I" unicode="I" horiz-adv-x="255" 
d="M90 0v720h75v-720h-75z" />
    <glyph glyph-name="J" unicode="J" horiz-adv-x="325" 
d="M235 110q0 -60 -31 -95t-84 -35q-75 0 -120 60l50 50q15 -23 31 -31.5t39 -8.5q15 0 27.5 15t12.5 45v610h75v-610z" />
    <glyph glyph-name="K" unicode="K" horiz-adv-x="545" 
d="M430 0l-263 295h-2v-295h-75v720h75v-315h2l263 315h90l-310 -369l315 -351h-95z" />
    <glyph glyph-name="L" unicode="L" horiz-adv-x="425" 
d="M399 0h-309v720h75v-650h245z" />
    <glyph glyph-name="M" unicode="M" horiz-adv-x="830" 
d="M665 0v570h-2l-248 -470l-248 470h-2v-570h-75v720h75l250 -475l250 475h75v-720h-75z" />
    <glyph glyph-name="N" unicode="N" horiz-adv-x="750" 
d="M585 0l-420 595v-595h-75v720h75l420 -595v595h75v-720h-75z" />
    <glyph glyph-name="O" unicode="O" horiz-adv-x="800" 
d="M675 360q0 64 -20.5 120.5t-57 98.5t-87 66.5t-110.5 24.5t-110.5 -24.5t-87 -66.5t-57 -98.5t-20.5 -120.5t20.5 -120.5t57 -98.5t87 -66.5t110.5 -24.5t110.5 24.5t87 66.5t57 98.5t20.5 120.5zM750 360q0 -83 -25 -152.5t-71 -120t-110.5 -79t-143.5 -28.5
t-143.5 28.5t-110.5 79t-71 120t-25 152.5q0 82 25 152t71 120.5t110.5 79t143.5 28.5t143.5 -28.5t110.5 -79t71 -120.5t25 -152z" />
    <glyph glyph-name="P" unicode="P" horiz-adv-x="500" 
d="M390 520q0 37 -12 62t-32.5 40t-46.5 21.5t-54 6.5h-80v-260h80q28 0 54 6t46.5 21t32.5 40t12 63zM465 520q0 -53 -18 -90.5t-48.5 -62t-70.5 -36t-83 -11.5h-80v-320h-75v720h155q43 0 83 -11.5t70.5 -36t48.5 -62.5t18 -90z" />
    <glyph glyph-name="Q" unicode="Q" horiz-adv-x="800" 
d="M675 360q0 64 -20.5 120.5t-57 98.5t-87 66.5t-110.5 24.5t-110.5 -24.5t-87 -66.5t-57 -98.5t-20.5 -120.5t20.5 -120.5t57 -98.5t87 -66.5t110.5 -24.5q48 0 90 16t76 44l-106 140h90l66 -86q28 41 43.5 90.5t15.5 105.5zM750 360q0 -78 -22 -144t-64 -117l76 -99h-90
l-37 49q-42 -33 -96 -51t-117 -18q-79 0 -143.5 28.5t-110.5 79t-71 120t-25 152.5q0 82 25 152t71 120.5t110.5 79t143.5 28.5t143.5 -28.5t110.5 -79t71 -120.5t25 -152z" />
    <glyph glyph-name="R" unicode="R" horiz-adv-x="530" 
d="M390 520q0 37 -12 62t-32.5 40t-46.5 21.5t-54 6.5h-80v-260h80q28 0 54 6t46.5 21t32.5 40t12 63zM400 0l-215 320h-20v-320h-75v720h155q43 0 83 -11.5t70.5 -36t48.5 -62.5t18 -90q0 -53 -18 -89t-46 -59.5t-62.5 -35.5t-68.5 -16l225 -320h-95z" />
    <glyph glyph-name="S" unicode="S" horiz-adv-x="535" 
d="M495 180q0 -41 -13.5 -77.5t-40 -63.5t-65 -43t-89.5 -16q-84 0 -145.5 33.5t-106.5 86.5l60 50q41 -53 85.5 -76.5t104.5 -23.5t97.5 35t37.5 95q0 47 -24.5 78.5t-61 55t-79.5 44.5t-79.5 48.5t-61 65.5t-24.5 97q0 45 16.5 77.5t43.5 53.5t62 30.5t73 9.5
q60 0 105 -21t75 -59l-45 -55q-19 26 -54.5 45.5t-80.5 19.5q-53 0 -86.5 -23.5t-33.5 -76.5q0 -45 24.5 -73.5t61 -51t79.5 -42.5t79.5 -48.5t61 -69.5t24.5 -105z" />
    <glyph glyph-name="T" unicode="T" horiz-adv-x="435" 
d="M255 645v-645h-75v645h-160l10 75h375l10 -75h-160z" />
    <glyph glyph-name="U" unicode="U" horiz-adv-x="686" 
d="M606 252q0 -68 -21 -118.5t-56.5 -85t-83.5 -51.5t-102 -17t-102 17t-83.5 51.5t-56.5 85t-21 118.5v468h75v-468q0 -47 14.5 -84.5t40 -63.5t60 -40t73.5 -14t73 14t59.5 40t40.5 63.5t15 84.5v468h75v-468z" />
    <glyph glyph-name="V" unicode="V" horiz-adv-x="540" 
d="M306 0h-72l-234 720h80l190 -600l190 600h80z" />
    <glyph glyph-name="W" unicode="W" horiz-adv-x="870" 
d="M660 0h-75l-149 580h-2l-149 -580h-75l-200 720h80l159 -595h2l149 595h70l144 -595h2l164 595h80z" />
    <glyph glyph-name="X" unicode="X" horiz-adv-x="560" 
d="M450 0l-170 295l-170 -295h-90l216 371l-201 349h85l160 -274l160 274h85l-201 -349l216 -371h-90z" />
    <glyph glyph-name="Y" unicode="Y" horiz-adv-x="530" 
d="M301 252v-252h-74v252l-227 468h85l180 -380l180 380h85z" />
    <glyph glyph-name="Z" unicode="Z" horiz-adv-x="516" 
d="M463 0h-423v45l325 605h-325l18 70h407v-45l-325 -605h341z" />
    <glyph glyph-name="bracketleft" unicode="[" horiz-adv-x="340" 
d="M250 -100l-150 5v870l150 5l10 -70h-90v-740h90z" />
    <glyph glyph-name="backslash" unicode="\" horiz-adv-x="380" 
d="M310 -100l-310 880h70l310 -880h-70z" />
    <glyph glyph-name="bracketright" unicode="]" horiz-adv-x="340" 
d="M90 -100l-10 70h90v740h-90l10 70l150 -5v-870z" />
    <glyph glyph-name="asciicircum" unicode="^" horiz-adv-x="460" 
d="M385 320l-155 320l-155 -320h-75l202 400h54l204 -400h-75z" />
    <glyph glyph-name="underscore" unicode="_" horiz-adv-x="430" 
d="M0 -150v70h430v-70h-430z" />
    <glyph glyph-name="grave" unicode="`" horiz-adv-x="230" 
d="M130 500l-90 120h90l60 -120h-60z" />
    <glyph glyph-name="a" unicode="a" 
d="M380 200q0 68 -36 109t-104 41q-25 0 -48.5 -11t-41.5 -30.5t-29 -47t-11 -61.5q0 -32 11 -59.5t29 -47.5t41.5 -31.5t48.5 -11.5q68 0 104 41t36 109zM380 0v50h-2q-29 -34 -65 -49.5t-78 -15.5q-41 0 -76.5 15.5t-62 44t-41.5 68t-15 87.5t15 87.5t41.5 68t62 44
t76.5 15.5q42 0 78 -15.5t65 -49.5h2v50h70v-400h-70z" />
    <glyph glyph-name="b" unicode="b" 
d="M410 200q0 34 -11 61.5t-29 47t-41.5 30.5t-48.5 11q-68 0 -104 -41t-36 -109t36 -109t104 -41q25 0 48.5 11.5t41.5 31.5t29 47.5t11 59.5zM480 200q0 -48 -15 -87.5t-41.5 -68t-62 -44t-76.5 -15.5q-42 0 -78 15.5t-65 49.5h-2v-50h-70v730h70v-380h2q29 34 65 49.5
t78 15.5q41 0 76.5 -15.5t62 -44t41.5 -68t15 -87.5z" />
    <glyph glyph-name="c" unicode="c" horiz-adv-x="434" 
d="M404 73q-17 -21 -33.5 -37t-35 -27.5t-42 -17.5t-53.5 -6q-41 0 -77.5 15.5t-63.5 44t-43 68t-16 87.5t16 87.5t43 68t63.5 44t77.5 15.5q48 0 88.5 -18.5t70.5 -60.5l-44 -41q-18 24 -47.5 39.5t-67.5 15.5q-30 0 -54.5 -12t-41 -32.5t-25.5 -47.5t-9 -58t9 -58
t25.5 -47.5t41 -32.5t54.5 -12q38 0 64 16.5t51 46.5z" />
    <glyph glyph-name="d" unicode="d" 
d="M380 200q0 68 -36 109t-104 41q-25 0 -48.5 -11t-41.5 -30.5t-29 -47t-11 -61.5q0 -32 11 -59.5t29 -47.5t41.5 -31.5t48.5 -11.5q68 0 104 41t36 109zM380 0v50h-2q-29 -34 -65 -49.5t-78 -15.5q-41 0 -76.5 15.5t-62 44t-41.5 68t-15 87.5t15 87.5t41.5 68t62 44
t76.5 15.5q42 0 78 -15.5t65 -49.5h2v380h70v-730h-70z" />
    <glyph glyph-name="e" unicode="e" horiz-adv-x="480" 
d="M366 245q-5 19 -14.5 37.5t-25 33.5t-37 24.5t-49.5 9.5q-27 0 -48.5 -10t-37.5 -25.5t-26 -34t-13 -35.5h251zM109 182q1 -27 12 -51t28 -42t40.5 -28.5t50.5 -10.5q41 0 70 14.5t53 44.5l59 -36q-41 -48 -84 -68t-98 -20q-41 0 -77.5 15.5t-63.5 44t-43 68t-16 87.5
t16 88t43 68t63.5 43.5t77.5 15.5t77.5 -15.5t63.5 -44t43 -68t16 -87.5v-18h-331z" />
    <glyph glyph-name="f" unicode="f" horiz-adv-x="275" 
d="M155 335v-335h-70v335h-60l10 65h50v180q0 68 31 109t99 41h40v-65h-20q-35 0 -57.5 -16.5t-22.5 -68.5v-180h100v-65h-100z" />
    <glyph glyph-name="g" unicode="g" 
d="M380 200q0 68 -36 109t-104 41q-25 0 -48.5 -11t-41.5 -30.5t-29 -47t-11 -61.5q0 -32 11 -59.5t29 -47.5t41.5 -31.5t48.5 -11.5q68 0 104 41t36 109zM450 0q0 -105 -50 -152.5t-140 -47.5q-54 0 -104 14t-86 48l40 58q29 -27 69.5 -41t80.5 -14q34 0 57 11t37 29.5
t20 43t6 51.5v50h-2q-29 -34 -65 -50t-78 -16q-41 0 -76.5 16t-62 44.5t-41.5 68t-15 87.5t15 87.5t41.5 68t62 44t76.5 15.5q42 0 78 -15.5t65 -49.5h2v50h70v-400z" />
    <glyph glyph-name="h" unicode="h" horiz-adv-x="480" 
d="M345 0v248q0 46 -19 74t-65 28q-53 0 -87 -31.5t-34 -100.5v-218h-70v730h70v-380h2q22 34 55 49.5t75 15.5q69 0 106 -42.5t37 -117.5v-255h-70z" />
    <glyph glyph-name="i" unicode="i" horiz-adv-x="210" 
d="M70 0v400h70v-400h-70zM70 500v80h70v-80h-70z" />
    <glyph glyph-name="j" unicode="j" horiz-adv-x="210" 
d="M140 -70q0 -75 -31 -101.5t-99 -18.5v65q19 -2 30.5 -0.5t18 8.5t9 20.5t2.5 36.5v460h70v-470zM70 500v80h70v-80h-70z" />
    <glyph glyph-name="k" unicode="k" horiz-adv-x="410" 
d="M299 0l-159 168v-168h-70v730h70v-480l146 150h86l-182 -191l200 -209h-91z" />
    <glyph glyph-name="l" unicode="l" horiz-adv-x="210" 
d="M70 0v730h70v-730h-70z" />
    <glyph glyph-name="m" unicode="m" horiz-adv-x="685" 
d="M550 0v255q0 42 -21 66t-54 24q-18 0 -35 -8t-30.5 -21.5t-21.5 -31.5t-8 -39v-245h-70v255q0 42 -20 66t-55 24q-19 0 -36 -8.5t-30 -23t-21 -33.5t-8 -40v-240h-70v400h70v-50h2q21 34 52.5 49.5t55.5 15.5q42 0 68.5 -16t41.5 -54q26 30 55.5 50t74.5 20
q32 0 56 -11.5t40.5 -31t25 -45t8.5 -54.5v-273h-70z" />
    <glyph glyph-name="n" unicode="n" horiz-adv-x="480" 
d="M345 0v248q0 46 -19 74t-65 28q-53 0 -87 -31.5t-34 -100.5v-218h-70v400h70v-50h2q22 34 55.5 49.5t75.5 15.5q69 0 105.5 -42.5t36.5 -117.5v-255h-70z" />
    <glyph glyph-name="o" unicode="o" horiz-adv-x="490" 
d="M380 200q0 32 -10.5 59.5t-28.5 47.5t-42.5 31.5t-53.5 11.5t-53.5 -11.5t-42.5 -31.5t-28.5 -47.5t-10.5 -59.5q0 -33 10.5 -60.5t28.5 -47.5t42.5 -31t53.5 -11t53.5 11t42.5 31t28.5 47.5t10.5 60.5zM450 200q0 -51 -16.5 -90.5t-44.5 -67.5t-65.5 -42.5t-78.5 -14.5
t-78.5 14.5t-65.5 42.5t-44.5 67.5t-16.5 90.5t16 90.5t43.5 67.5t65 42.5t80.5 14.5q41 0 78.5 -14.5t65.5 -42.5t44.5 -67.5t16.5 -90.5z" />
    <glyph glyph-name="p" unicode="p" 
d="M410 200q0 32 -11 59.5t-29 47.5t-41.5 31.5t-48.5 11.5q-68 0 -104 -41t-36 -109t36 -109t104 -41q25 0 48.5 11t41.5 30.5t29 47t11 61.5zM480 200q0 -48 -15 -87.5t-41.5 -68t-62 -44t-76.5 -15.5q-42 0 -78 15.5t-65 49.5h-2v-240h-70v590h70v-50h2q29 34 65 49.5
t78 15.5q41 0 76.5 -15.5t62 -44t41.5 -68t15 -87.5z" />
    <glyph glyph-name="q" unicode="q" 
d="M380 200q0 68 -36 109t-104 41q-25 0 -48.5 -11.5t-41.5 -31.5t-29 -47.5t-11 -59.5q0 -34 11 -61.5t29 -47t41.5 -30.5t48.5 -11q68 0 104 41t36 109zM380 -190v240h-2q-29 -34 -65 -49.5t-78 -15.5q-41 0 -76.5 15.5t-62 44t-41.5 68t-15 87.5t15 87.5t41.5 68t62 44
t76.5 15.5q42 0 78 -15.5t65 -49.5h2v50h70v-590h-70z" />
    <glyph glyph-name="r" unicode="r" horiz-adv-x="280" 
d="M250 340q-23 4 -43 -2t-35 -18.5t-23.5 -30.5t-8.5 -39v-250h-70v400h70v-50h2q17 30 40 47.5t68 17.5v-75z" />
    <glyph glyph-name="s" unicode="s" horiz-adv-x="385" 
d="M335 110q0 -26 -8 -49t-24.5 -40t-43.5 -26.5t-64 -9.5q-60 0 -98.5 22.5t-61.5 52.5l45 55q15 -23 46 -44t69 -21t54 15t16 45q0 17 -15 29t-37 22.5t-48 21t-48 26t-37 37t-15 54.5q0 30 10.5 51.5t28.5 36t41.5 21t49.5 6.5q34 0 70.5 -12.5t59.5 -42.5l-40 -50
q-23 23 -45 31.5t-45 8.5q-30 0 -45 -13.5t-15 -36.5q0 -18 15 -29t37 -20.5t48 -19.5t48 -25t37 -38t15 -58z" />
    <glyph glyph-name="t" unicode="t" horiz-adv-x="275" 
d="M225 0q-30 -15 -59 -15q-38 0 -59.5 21t-21.5 74v255h-60l10 65h50v145l70 20v-165h70v-65h-70v-250q0 -27 20 -32.5t50 17.5v-70z" />
    <glyph glyph-name="u" unicode="u" horiz-adv-x="480" 
d="M340 0v50q-23 -34 -57 -49.5t-76 -15.5q-69 0 -105.5 42.5t-36.5 117.5v255h70v-248q0 -46 19 -74t65 -28q53 0 87 31.5t34 100.5v218h70v-400h-70z" />
    <glyph glyph-name="v" unicode="v" horiz-adv-x="405" 
d="M240 0h-73l-157 400h75l119 -310h2l114 310h75z" />
    <glyph glyph-name="w" unicode="w" horiz-adv-x="606" 
d="M468 0h-67l-99 283h-2l-99 -283h-63l-128 400h73l86 -292h2l103 292h55l103 -292h2l85 292h77z" />
    <glyph glyph-name="x" unicode="x" horiz-adv-x="375" 
d="M280 0l-92 145l-93 -145h-85l136 210l-121 190h80l83 -127l82 127h80l-121 -190l136 -210h-85z" />
    <glyph glyph-name="y" unicode="y" horiz-adv-x="387" 
d="M137 -190h-73l102 244l-166 346h76l125 -264l109 264h72z" />
    <glyph glyph-name="z" unicode="z" horiz-adv-x="377" 
d="M138 65h197l-20 -65h-300l215 335h-185l20 65h287z" />
    <glyph glyph-name="braceleft" unicode="{" horiz-adv-x="330" 
d="M280 -100h-50q-68 0 -99 31t-31 99v220q0 37 -21.5 47.5t-58.5 10.5v64q19 0 33.5 2t25 8t16 17.5t5.5 30.5v220q0 68 31 99t99 31h50l10 -65h-60q-34 0 -47 -13.5t-13 -51.5v-220q0 -19 -2 -32.5t-8 -24t-15.5 -18.5t-24.5 -15q30 -15 40 -34t10 -56v-220
q0 -38 13 -51.5t47 -13.5h60z" />
    <glyph glyph-name="bar" unicode="|" horiz-adv-x="380" 
d="M157 -100v880h65v-880h-65z" />
    <glyph glyph-name="braceright" unicode="}" horiz-adv-x="330" 
d="M310 308q-38 0 -59 -10.5t-21 -47.5v-220q0 -68 -31 -99t-99 -31h-50l-10 65h60q34 0 47 13.5t13 51.5v220q0 37 10 56t40 34q-15 7 -24.5 15t-15.5 18.5t-8 24t-2 32.5v220q0 38 -13 51.5t-47 13.5h-60l10 65h50q68 0 99 -31t31 -99v-220q0 -19 5.5 -30.5t16 -17.5
t25 -8t33.5 -2v-64z" />
    <glyph glyph-name="asciitilde" unicode="~" horiz-adv-x="530" 
d="M470 350q0 -34 -7 -57t-20.5 -37t-32 -20t-40.5 -6q-26 0 -55 11.5t-57.5 26t-53.5 26t-44 11.5q-40 0 -40 -55h-60q0 67 27.5 93.5t72.5 26.5q26 0 55 -11.5t57.5 -26t53.5 -26t44 -11.5q40 0 40 55h60z" />
    <glyph glyph-name="exclamdown" unicode="&#xa1;" horiz-adv-x="255" 
d="M90 -190v560h75v-560h-75zM90 445v85h75v-85h-75z" />
    <glyph glyph-name="cent" unicode="&#xa2;" horiz-adv-x="440" 
d="M210 347q-48 -11 -76.5 -52.5t-28.5 -94.5t28.5 -94.5t76.5 -52.5v294zM410 73q-32 -42 -63 -60t-77 -22v-81h-60v82q-36 5 -67 22t-54 44t-36 62.5t-13 79.5q0 43 13 79t36 63t54 44t67 22v82h60v-82q38 -4 71 -20t59 -48l-40 -45q-14 20 -37.5 33.5t-52.5 18.5v-294
q27 5 48.5 19t41.5 38z" />
    <glyph glyph-name="sterling" unicode="&#xa3;" horiz-adv-x="480" 
d="M400 580q-30 34 -63.5 46t-61.5 7t-46.5 -25t-18.5 -50v-108h130l-10 -65h-120q0 -62 -4 -110.5t-12.5 -86.5t-21.5 -67t-32 -51h290l-20 -70h-350v63q45 43 62.5 120.5t17.5 201.5h-70l10 65h60v108q0 37 12.5 64t32 44t43.5 25.5t48 8.5q30 0 52.5 -4t41 -12.5
t35 -22.5t35.5 -34z" />
    <glyph glyph-name="currency" unicode="&#xa4;" horiz-adv-x="653" 
d="M20 380l10 60h80q12 60 38 108t63 82t82.5 52t96.5 18q45 0 79 -11.5t59.5 -29.5t43 -39t28.5 -40l-60 -40q-8 15 -21 31.5t-31.5 31t-43 23.5t-54.5 9q-36 0 -69 -13.5t-60.5 -38.5t-48 -61t-31.5 -82h299l-10 -60h-298q-1 -10 -1.5 -19.5t-0.5 -20.5t0.5 -20.5
t1.5 -19.5h308l-10 -60h-288q10 -45 30.5 -81.5t47.5 -61.5t60.5 -38.5t69.5 -13.5q30 0 53 8t41 21t31.5 30t24.5 36l60 -40q-15 -23 -33 -44.5t-42 -38t-57 -27t-78 -10.5q-50 0 -95.5 18t-82.5 51.5t-63.5 81.5t-38.5 109h-90l10 60h72q-1 7 -1.5 17.5t-0.5 22.5v19.5
t1 20.5h-81z" />
    <glyph glyph-name="yen" unicode="&#xa5;" horiz-adv-x="580" 
d="M386 365h134v-65h-166l-29 -60h195v-65h-195v-175h-70v175h-195v65h195l-29 60h-166v65h134l-154 315h80l170 -360l170 360h80z" />
    <glyph glyph-name="brokenbar" unicode="&#xa6;" horiz-adv-x="310" 
d="M120 0v300h70v-300h-70zM120 390v290h70v-290h-70z" />
    <glyph glyph-name="section" unicode="&#xa7;" horiz-adv-x="510" 
d="M395 300q0 30 -20 53t-51 43.5t-68.5 40t-71.5 43.5q-31 -20 -50 -46.5t-19 -73.5q0 -30 20.5 -52.5t52 -42t70 -39t74.5 -42.5q29 20 46 45.5t17 70.5zM470 300q0 -61 -22.5 -96t-60.5 -62q24 -23 38.5 -53t14.5 -69q0 -41 -15.5 -73t-41 -53.5t-57.5 -32.5t-66 -11
q-38 0 -68 9t-55.5 25t-46.5 38t-40 48l60 50q7 -15 20.5 -32.5t32 -32.5t43 -25t54.5 -10q19 0 37.5 7t33.5 20.5t24.5 31.5t9.5 41q0 35 -24 60t-60 46t-78.5 41.5t-78.5 46.5t-60 61t-24 85q0 33 6.5 57.5t19 43.5t30 34.5t38.5 30.5q-18 17 -31 46t-13 68
q0 41 15.5 71.5t39.5 50t54.5 29t60.5 9.5q60 0 105 -26t75 -64l-50 -50q-12 15 -24 28t-27 22t-34 14.5t-45 5.5q-17 0 -33.5 -5.5t-30.5 -17t-22.5 -28.5t-8.5 -39q0 -35 22.5 -60t56.5 -46t73.5 -41.5t73.5 -46.5t56.5 -61t22.5 -85z" />
    <glyph glyph-name="dieresis" unicode="&#xa8;" horiz-adv-x="300" 
d="M40 500v80h70v-80h-70zM190 500v80h70v-80h-70z" />
    <glyph glyph-name="copyright" unicode="&#xa9;" horiz-adv-x="860" 
d="M600 206q-19 -21 -36.5 -36.5t-37 -25t-43 -14.5t-53.5 -5q-48 0 -88 17.5t-69.5 49t-46 74.5t-16.5 94t16.5 94t46 74.5t69.5 49t88 17.5q61 0 100.5 -20.5t69.5 -54.5l-40 -50q-30 38 -60.5 49t-69.5 11q-34 0 -61.5 -12.5t-47 -35t-30.5 -54t-11 -68.5q0 -78 41 -124
t109 -46q39 0 68 15t52 45zM740 360q0 64 -24.5 120.5t-66.5 98.5t-98.5 66.5t-120.5 24.5q-65 0 -121.5 -24.5t-98.5 -66.5t-66 -98.5t-24 -120.5q0 -65 24 -121.5t66 -98.5t98.5 -66t121.5 -24q64 0 120.5 24t98.5 66t66.5 98.5t24.5 121.5zM810 360q0 -79 -30 -148
t-81.5 -120.5t-120.5 -81.5t-148 -30t-148 30t-120.5 81.5t-81.5 120.5t-30 148t30 148t81.5 120.5t120.5 81.5t148 30t148 -30t120.5 -81.5t81.5 -120.5t30 -148z" />
    <glyph glyph-name="ordfeminine" unicode="&#xaa;" horiz-adv-x="350" 
d="M250 545q0 45 -25 67.5t-55 22.5q-38 0 -59 -26t-21 -64t21 -64t59 -26q30 0 55 22.5t25 67.5zM310 300h-270v60h270v-60zM250 410v40q-23 -30 -46.5 -40t-53.5 -10q-19 0 -40 9.5t-39 27.5t-29.5 45t-11.5 63t11.5 63t29.5 45t39 27.5t40 9.5q30 0 53.5 -9.5t46.5 -35.5
v35h60v-270h-60z" />
    <glyph glyph-name="guillemotleft" unicode="&#xab;" horiz-adv-x="390" 
d="M160 110l-110 110l110 110l40 -40l-70 -70l70 -70zM280 110l-110 110l110 110l40 -40l-70 -70l70 -70z" />
    <glyph glyph-name="logicalnot" unicode="&#xac;" horiz-adv-x="550" 
d="M430 160v110h-370v70h430v-180h-60z" />
    <glyph glyph-name="registered" unicode="&#xae;" horiz-adv-x="530" 
d="M320 564q0 24 -14.5 29t-34.5 5h-40v-68h40q20 0 34.5 5.5t14.5 28.5zM370 564q0 -18 -6 -31.5t-15.5 -23t-20.5 -15t-21 -6.5l52 -99h-61l-45 97h-22v-97h-54v252h103q41 0 65.5 -21t24.5 -56zM440 515q0 36 -13.5 68t-37.5 56t-56 37.5t-68 13.5t-68 -13.5t-56 -37.5
t-37.5 -56t-13.5 -68t13.5 -68t37.5 -56t56 -37.5t68 -13.5t68 13.5t56 37.5t37.5 56t13.5 68zM490 515q0 -47 -17.5 -87.5t-48.5 -71.5t-72 -48.5t-87 -17.5q-47 0 -87.5 17.5t-71.5 48.5t-48.5 71.5t-17.5 87.5q0 46 17.5 87t48.5 72t71.5 48.5t87.5 17.5q46 0 87 -17.5
t72 -48.5t48.5 -72t17.5 -87z" />
    <glyph glyph-name="macron" unicode="&#xaf;" horiz-adv-x="420" 
d="M40 500v60h340v-60h-340z" />
    <glyph glyph-name="macron" unicode="&#x2c9;" horiz-adv-x="420" 
d="M40 500v60h340v-60h-340z" />
    <glyph glyph-name="degree" unicode="&#xb0;" horiz-adv-x="290" 
d="M200 615q0 23 -16 39t-39 16t-39 -16t-16 -39t16 -39t39 -16t39 16t16 39zM250 615q0 -22 -8.5 -41t-22.5 -33.5t-33 -22.5t-41 -8t-41 8t-33.5 22.5t-22.5 33.5t-8 41t8 41t22.5 33t33.5 22.5t41 8.5t41 -8.5t33 -22.5t22.5 -33t8.5 -41z" />
    <glyph glyph-name="plusminus" unicode="&#xb1;" horiz-adv-x="550" 
d="M60 0v70h430v-70h-430zM310 320v-180h-70v180h-180v70h180v180h70v-180h180v-70h-180z" />
    <glyph glyph-name="twosuperior" unicode="&#xb2;" horiz-adv-x="430" 
d="M340 270h-260v50q0 42 15.5 71t39 49.5t50.5 34.5t50.5 28t39 29t15.5 38q0 70 -70 70q-34 0 -53 -21t-27 -59l-60 10q4 26 15 49.5t28.5 41.5t42 28.5t54.5 10.5q61 0 95.5 -34.5t34.5 -95.5q0 -38 -15.5 -62.5t-39 -42t-50.5 -30.5t-50.5 -27t-39 -32.5t-15.5 -45.5
h210z" />
    <glyph glyph-name="threesuperior" unicode="&#xb3;" horiz-adv-x="430" 
d="M350 390q0 -30 -10.5 -55.5t-29.5 -44.5t-44.5 -29.5t-55.5 -10.5q-53 0 -90 27.5t-60 72.5l55 30q19 -38 42 -55t53 -17q34 0 57 22t23 60t-25 59t-55 21h-30v60h30q60 0 60 60q0 23 -18.5 37.5t-41.5 14.5q-29 0 -46.5 -16t-28.5 -46l-55 20q15 45 46 72.5t84 27.5
q57 0 88.5 -28.5t31.5 -81.5q0 -24 -5 -39.5t-12.5 -25.5t-16.5 -15.5t-16 -9.5q11 -4 23.5 -12.5t23 -22.5t17 -32.5t6.5 -42.5z" />
    <glyph glyph-name="acute" unicode="&#xb4;" horiz-adv-x="230" 
d="M100 500h-60l60 120h90z" />
    <glyph glyph-name="mu" unicode="&#xb5;" horiz-adv-x="485" 
d="M345 0v50q-23 -34 -54 -49.5t-61 -15.5q-26 0 -52.5 10t-37.5 25v-210h-70v590h70v-248q0 -46 19 -74t65 -28q53 0 87 31.5t34 100.5v218h70v-400h-70z" />
    <glyph glyph-name="mu" unicode="&#x3bc;" horiz-adv-x="485" 
d="M345 0v50q-23 -34 -54 -49.5t-61 -15.5q-26 0 -52.5 10t-37.5 25v-210h-70v590h70v-248q0 -46 19 -74t65 -28q53 0 87 31.5t34 100.5v218h70v-400h-70z" />
    <glyph glyph-name="paragraph" unicode="&#xb6;" horiz-adv-x="570" 
d="M430 0v655h-95v-655h-75v400h-50q-37 0 -70 11t-57.5 31.5t-38.5 50t-14 67.5q0 37 14 67t38.5 50.5t57.5 31.5t70 11h295v-720h-75z" />
    <glyph glyph-name="periodcentered" unicode="&#xb7;" horiz-adv-x="260" 
d="M90 180v80h80v-80h-80z" />
    <glyph glyph-name="periodcentered" unicode="&#x2219;" horiz-adv-x="260" 
d="M90 180v80h80v-80h-80z" />
    <glyph glyph-name="cedilla" unicode="&#xb8;" horiz-adv-x="150" 
d="M110 -60q15 -26 13 -51.5t-14 -47t-31 -38t-38 -23.5l-30 20q11 7 21.5 23t16 35.5t4.5 41t-12 40.5h70z" />
    <glyph glyph-name="onesuperior" unicode="&#xb9;" horiz-adv-x="320" 
d="M140 270v340l-60 -50v70l60 50h60v-410h-60z" />
    <glyph glyph-name="ordmasculine" unicode="&#xba;" horiz-adv-x="350" 
d="M260 545q0 38 -23.5 64t-61.5 26t-61.5 -26t-23.5 -64t23.5 -64t61.5 -26t61.5 26t23.5 64zM310 300h-270v60h270v-60zM320 545q0 -34 -11.5 -61t-31 -45.5t-46 -28.5t-56.5 -10t-56.5 10t-46 28.5t-31 45.5t-11.5 61t11.5 60.5t31 45.5t46 29t56.5 10t56.5 -10t46 -29
t31 -45.5t11.5 -60.5z" />
    <glyph glyph-name="guillemotright" unicode="&#xbb;" horiz-adv-x="390" 
d="M110 110l-40 40l70 70l-70 70l40 40l110 -110zM230 110l-40 40l70 70l-70 70l40 40l110 -110z" />
    <glyph glyph-name="onequarter" unicode="&#xbc;" horiz-adv-x="790" 
d="M600 310l-110 -180h110v180zM140 270v340l-60 -50v70l60 50h60v-410h-60zM190 0h-70l410 680h70zM660 70v-70h-60v70h-210l210 340h60v-280h50v-60h-50z" />
    <glyph glyph-name="onehalf" unicode="&#xbd;" horiz-adv-x="860" 
d="M140 270v340l-60 -50v70l60 50h60v-410h-60zM190 0h-70l410 680h70zM750 0h-260v50q0 42 15.5 71t39 49.5t50.5 34.5t50.5 28t39 29t15.5 38q0 70 -70 70q-34 0 -53 -21t-27 -59l-60 10q4 26 15 49.5t28.5 41.5t42 28.5t54.5 10.5q61 0 95.5 -34.5t34.5 -95.5
q0 -38 -15.5 -62.5t-39 -42t-50.5 -30.5t-50.5 -27t-39 -32.5t-15.5 -45.5h210z" />
    <glyph glyph-name="threequarters" unicode="&#xbe;" horiz-adv-x="910" 
d="M740 310l-110 -180h110v180zM350 390q0 -30 -10.5 -55.5t-29.5 -44.5t-44.5 -29.5t-55.5 -10.5q-53 0 -90 27.5t-60 72.5l55 30q19 -38 42 -55t53 -17q34 0 57 22t23 60t-25 59t-55 21h-30v60h30q60 0 60 60q0 23 -18.5 37.5t-41.5 14.5q-29 0 -46.5 -16t-28.5 -46
l-55 20q15 45 46 72.5t84 27.5q57 0 88.5 -28.5t31.5 -81.5q0 -24 -5 -39.5t-12.5 -25.5t-16.5 -15.5t-16 -9.5q11 -4 23.5 -12.5t23 -22.5t17 -32.5t6.5 -42.5zM330 0h-70l410 680h70zM800 70v-70h-60v70h-210l210 340h60v-280h50v-60h-50z" />
    <glyph glyph-name="questiondown" unicode="&#xbf;" horiz-adv-x="490" 
d="M460 -5q-4 -45 -20.5 -81t-44 -61.5t-64.5 -39t-81 -13.5t-82 11.5t-66.5 35t-45 59.5t-16.5 84q0 47 16 79.5t40 57.5t50 47.5t47 50t31 64.5t1 91h75q11 -59 2 -101t-30 -74t-48 -57t-51 -49t-41 -49.5t-17 -59.5q0 -25 10 -47t28 -38t42.5 -25.5t54.5 -9.5
q27 0 51.5 10.5t43 29t29.5 44t11 55.5zM225 455v85h75v-85h-75z" />
    <glyph glyph-name="Agrave" unicode="&#xc0;" horiz-adv-x="580" 
d="M260 780l-90 120h90l60 -120h-60zM290 630l-108 -340h216zM490 0l-70 220h-260l-70 -220h-80l245 720h70l245 -720h-80z" />
    <glyph glyph-name="Aacute" unicode="&#xc1;" horiz-adv-x="580" 
d="M320 780h-60l60 120h90zM290 630l-108 -340h216zM490 0l-70 220h-260l-70 -220h-80l245 720h70l245 -720h-80z" />
    <glyph glyph-name="Acircumflex" unicode="&#xc2;" horiz-adv-x="580" 
d="M330 780l-40 80l-40 -80h-70l80 120h60l80 -120h-70zM290 630l-108 -340h216zM490 0l-70 220h-260l-70 -220h-80l245 720h70l245 -720h-80z" />
    <glyph glyph-name="Atilde" unicode="&#xc3;" horiz-adv-x="580" 
d="M420 850q0 -45 -15 -62.5t-45 -17.5q-19 0 -37.5 7t-35 15.5t-31.5 15.5t-26 7t-15.5 -6t-4.5 -29h-50v20q0 45 15 62.5t45 17.5q19 0 37.5 -7t35 -15.5t31.5 -15.5t26 -7t15.5 6t4.5 29h50v-20zM290 630l-108 -340h216zM490 0l-70 220h-260l-70 -220h-80l245 720h70
l245 -720h-80z" />
    <glyph glyph-name="Adieresis" unicode="&#xc4;" horiz-adv-x="580" 
d="M180 780v80h70v-80h-70zM330 780v80h70v-80h-70zM290 630l-108 -340h216zM490 0l-70 220h-260l-70 -220h-80l245 720h70l245 -720h-80z" />
    <glyph glyph-name="Aring" unicode="&#xc5;" horiz-adv-x="580" 
d="M325 840q0 14 -10.5 24.5t-24.5 10.5t-24.5 -10.5t-10.5 -24.5t10.5 -24.5t24.5 -10.5t24.5 10.5t10.5 24.5zM370 840q0 -33 -23.5 -56.5t-56.5 -23.5t-56.5 23.5t-23.5 56.5t23.5 56.5t56.5 23.5t56.5 -23.5t23.5 -56.5zM290 630l-108 -340h216zM490 0l-70 220h-260
l-70 -220h-80l245 720h70l245 -720h-80z" />
    <glyph glyph-name="AE" unicode="&#xc6;" horiz-adv-x="785" 
d="M380 640h-2l-159 -350h161v350zM725 0h-345v220h-194l-101 -220h-85l340 720h367l8 -70h-260v-245h225v-70h-225v-265h280z" />
    <glyph glyph-name="Ccedilla" unicode="&#xc7;" horiz-adv-x="688" 
d="M430 -60q15 -26 13 -51.5t-14 -47t-31 -38t-38 -23.5l-30 20q11 7 21.5 23t16 35.5t4.5 41t-12 40.5h70zM653 90q-54 -54 -114.5 -82t-128.5 -28q-81 0 -147.5 27.5t-113.5 78t-73 120.5t-26 154t26 154t73.5 120.5t113.5 78t147 27.5q75 0 134 -31t100 -79l-54 -48
q-10 15 -28 30.5t-41.5 28t-52 21t-58.5 8.5q-66 0 -118.5 -23.5t-89.5 -65.5t-57 -98.5t-20 -122.5t23 -122.5t62 -98.5t90.5 -65.5t109.5 -23.5q33 0 59.5 7t50 19.5t44 29.5t40.5 38z" />
    <glyph glyph-name="Egrave" unicode="&#xc8;" horiz-adv-x="494" 
d="M230 780l-90 120h90l60 -120h-60zM435 0h-345v720h327l9 -70h-261v-245h225v-70h-225v-265h279z" />
    <glyph glyph-name="Eacute" unicode="&#xc9;" horiz-adv-x="494" 
d="M260 780h-60l60 120h90zM435 0h-345v720h327l9 -70h-261v-245h225v-70h-225v-265h279z" />
    <glyph glyph-name="Ecircumflex" unicode="&#xca;" horiz-adv-x="494" 
d="M290 780l-40 80l-40 -80h-70l80 120h60l80 -120h-70zM435 0h-345v720h327l9 -70h-261v-245h225v-70h-225v-265h279z" />
    <glyph glyph-name="Edieresis" unicode="&#xcb;" horiz-adv-x="494" 
d="M140 780v80h70v-80h-70zM290 780v80h70v-80h-70zM435 0h-345v720h327l9 -70h-261v-245h225v-70h-225v-265h279z" />
    <glyph glyph-name="Igrave" unicode="&#xcc;" horiz-adv-x="255" 
d="M100 780l-90 120h90l60 -120h-60zM90 0v720h75v-720h-75z" />
    <glyph glyph-name="Iacute" unicode="&#xcd;" horiz-adv-x="255" 
d="M155 780h-60l60 120h90zM90 0v720h75v-720h-75z" />
    <glyph glyph-name="Icircumflex" unicode="&#xce;" horiz-adv-x="255" 
d="M167 780l-40 80l-40 -80h-70l80 120h60l80 -120h-70zM90 0v720h75v-720h-75z" />
    <glyph glyph-name="Idieresis" unicode="&#xcf;" horiz-adv-x="255" 
d="M17 780v80h70v-80h-70zM167 780v80h70v-80h-70zM90 0v720h75v-720h-75z" />
    <glyph glyph-name="Eth" unicode="&#xd0;" horiz-adv-x="665" 
d="M540 360q0 75 -28 130t-70.5 90.5t-92.5 52.5t-94 17h-90v-250h185l-10 -70h-175v-260h90q44 0 94 17t92.5 53t70.5 90.5t28 129.5zM615 360q0 -95 -33.5 -163t-85.5 -111.5t-115.5 -64.5t-123.5 -21h-167v330h-70l10 70h60v320h167q60 0 123.5 -20.5t115.5 -64.5
t85.5 -112t33.5 -163z" />
    <glyph glyph-name="Ntilde" unicode="&#xd1;" horiz-adv-x="750" 
d="M500 850q0 -45 -15 -62.5t-45 -17.5q-19 0 -37.5 7t-35 15.5t-31.5 15.5t-26 7t-15.5 -6t-4.5 -29h-50v20q0 45 15 62.5t45 17.5q19 0 37.5 -7t35 -15.5t31.5 -15.5t26 -7t15.5 6t4.5 29h50v-20zM585 0l-420 595v-595h-75v720h75l420 -595v595h75v-720h-75z" />
    <glyph glyph-name="Ograve" unicode="&#xd2;" horiz-adv-x="800" 
d="M380 780l-90 120h90l60 -120h-60zM675 360q0 64 -20.5 120.5t-57 98.5t-87 66.5t-110.5 24.5t-110.5 -24.5t-87 -66.5t-57 -98.5t-20.5 -120.5t20.5 -120.5t57 -98.5t87 -66.5t110.5 -24.5t110.5 24.5t87 66.5t57 98.5t20.5 120.5zM750 360q0 -83 -25 -152.5t-71 -120
t-110.5 -79t-143.5 -28.5t-143.5 28.5t-110.5 79t-71 120t-25 152.5q0 82 25 152t71 120.5t110.5 79t143.5 28.5t143.5 -28.5t110.5 -79t71 -120.5t25 -152z" />
    <glyph glyph-name="Oacute" unicode="&#xd3;" horiz-adv-x="800" 
d="M420 780h-60l60 120h90zM675 360q0 64 -20.5 120.5t-57 98.5t-87 66.5t-110.5 24.5t-110.5 -24.5t-87 -66.5t-57 -98.5t-20.5 -120.5t20.5 -120.5t57 -98.5t87 -66.5t110.5 -24.5t110.5 24.5t87 66.5t57 98.5t20.5 120.5zM750 360q0 -83 -25 -152.5t-71 -120t-110.5 -79
t-143.5 -28.5t-143.5 28.5t-110.5 79t-71 120t-25 152.5q0 82 25 152t71 120.5t110.5 79t143.5 28.5t143.5 -28.5t110.5 -79t71 -120.5t25 -152z" />
    <glyph glyph-name="Ocircumflex" unicode="&#xd4;" horiz-adv-x="800" 
d="M440 780l-40 80l-40 -80h-70l80 120h60l80 -120h-70zM675 360q0 64 -20.5 120.5t-57 98.5t-87 66.5t-110.5 24.5t-110.5 -24.5t-87 -66.5t-57 -98.5t-20.5 -120.5t20.5 -120.5t57 -98.5t87 -66.5t110.5 -24.5t110.5 24.5t87 66.5t57 98.5t20.5 120.5zM750 360
q0 -83 -25 -152.5t-71 -120t-110.5 -79t-143.5 -28.5t-143.5 28.5t-110.5 79t-71 120t-25 152.5q0 82 25 152t71 120.5t110.5 79t143.5 28.5t143.5 -28.5t110.5 -79t71 -120.5t25 -152z" />
    <glyph glyph-name="Otilde" unicode="&#xd5;" horiz-adv-x="800" 
d="M530 850q0 -45 -15 -62.5t-45 -17.5q-19 0 -37.5 7t-35 15.5t-31.5 15.5t-26 7t-15.5 -6t-4.5 -29h-50v20q0 45 15 62.5t45 17.5q19 0 37.5 -7t35 -15.5t31.5 -15.5t26 -7t15.5 6t4.5 29h50v-20zM675 360q0 64 -20.5 120.5t-57 98.5t-87 66.5t-110.5 24.5t-110.5 -24.5
t-87 -66.5t-57 -98.5t-20.5 -120.5t20.5 -120.5t57 -98.5t87 -66.5t110.5 -24.5t110.5 24.5t87 66.5t57 98.5t20.5 120.5zM750 360q0 -83 -25 -152.5t-71 -120t-110.5 -79t-143.5 -28.5t-143.5 28.5t-110.5 79t-71 120t-25 152.5q0 82 25 152t71 120.5t110.5 79t143.5 28.5
t143.5 -28.5t110.5 -79t71 -120.5t25 -152z" />
    <glyph glyph-name="Odieresis" unicode="&#xd6;" horiz-adv-x="800" 
d="M290 780v80h70v-80h-70zM440 780v80h70v-80h-70zM675 360q0 64 -20.5 120.5t-57 98.5t-87 66.5t-110.5 24.5t-110.5 -24.5t-87 -66.5t-57 -98.5t-20.5 -120.5t20.5 -120.5t57 -98.5t87 -66.5t110.5 -24.5t110.5 24.5t87 66.5t57 98.5t20.5 120.5zM750 360
q0 -83 -25 -152.5t-71 -120t-110.5 -79t-143.5 -28.5t-143.5 28.5t-110.5 79t-71 120t-25 152.5q0 82 25 152t71 120.5t110.5 79t143.5 28.5t143.5 -28.5t110.5 -79t71 -120.5t25 -152z" />
    <glyph glyph-name="multiply" unicode="&#xd7;" horiz-adv-x="550" 
d="M445 86l-169 169l-171 -169l-49 49l170 170l-170 170l49 49l170 -170l170 170l49 -49l-170 -170l170 -170z" />
    <glyph glyph-name="Oslash" unicode="&#xd8;" horiz-adv-x="800" 
d="M675 360q0 54 -15.5 102.5t-44.5 90.5l-393 -428q35 -35 80.5 -55t97.5 -20q58 0 108.5 25t87.5 67.5t58 98.5t21 119zM578 596q-35 34 -80 54t-98 20q-57 0 -107.5 -25t-87.5 -67.5t-58.5 -98.5t-21.5 -119q0 -54 15.5 -102.5t44.5 -89.5zM750 360q0 -81 -26 -150.5
t-72.5 -120.5t-111 -80t-140.5 -29q-67 0 -125.5 23t-103.5 65l-81 -88l-40 40l82 90q-38 49 -60 112t-22 138q0 81 26.5 150.5t73 120.5t110.5 80t140 29q67 0 125.5 -23t104.5 -65l80 88l40 -40l-82 -89q39 -49 60.5 -112.5t21.5 -138.5z" />
    <glyph glyph-name="Ugrave" unicode="&#xd9;" horiz-adv-x="686" 
d="M325 780l-90 120h90l60 -120h-60zM606 252q0 -68 -21 -118.5t-56.5 -85t-83.5 -51.5t-102 -17t-102 17t-83.5 51.5t-56.5 85t-21 118.5v468h75v-468q0 -47 14.5 -84.5t40 -63.5t60 -40t73.5 -14t73 14t59.5 40t40.5 63.5t15 84.5v468h75v-468z" />
    <glyph glyph-name="Uacute" unicode="&#xda;" horiz-adv-x="686" 
d="M365 780h-60l60 120h90zM606 252q0 -68 -21 -118.5t-56.5 -85t-83.5 -51.5t-102 -17t-102 17t-83.5 51.5t-56.5 85t-21 118.5v468h75v-468q0 -47 14.5 -84.5t40 -63.5t60 -40t73.5 -14t73 14t59.5 40t40.5 63.5t15 84.5v468h75v-468z" />
    <glyph glyph-name="Ucircumflex" unicode="&#xdb;" horiz-adv-x="686" 
d="M383 780l-40 80l-40 -80h-70l80 120h60l80 -120h-70zM606 252q0 -68 -21 -118.5t-56.5 -85t-83.5 -51.5t-102 -17t-102 17t-83.5 51.5t-56.5 85t-21 118.5v468h75v-468q0 -47 14.5 -84.5t40 -63.5t60 -40t73.5 -14t73 14t59.5 40t40.5 63.5t15 84.5v468h75v-468z" />
    <glyph glyph-name="Udieresis" unicode="&#xdc;" horiz-adv-x="686" 
d="M233 780v80h70v-80h-70zM383 780v80h70v-80h-70zM606 252q0 -68 -21 -118.5t-56.5 -85t-83.5 -51.5t-102 -17t-102 17t-83.5 51.5t-56.5 85t-21 118.5v468h75v-468q0 -47 14.5 -84.5t40 -63.5t60 -40t73.5 -14t73 14t59.5 40t40.5 63.5t15 84.5v468h75v-468z" />
    <glyph glyph-name="Yacute" unicode="&#xdd;" horiz-adv-x="530" 
d="M280 780h-60l60 120h90zM301 252v-252h-74v252l-227 468h85l180 -380l180 380h85z" />
    <glyph glyph-name="Thorn" unicode="&#xde;" horiz-adv-x="500" 
d="M390 360q0 37 -12 62t-32.5 40t-46.5 21.5t-54 6.5h-80v-260h80q28 0 54 6t46.5 21t32.5 40t12 63zM465 360q0 -53 -18 -90.5t-48.5 -62t-70.5 -36t-83 -11.5h-80v-160h-75v720h75v-160h80q43 0 83 -11.5t70.5 -36t48.5 -62.5t18 -90z" />
    <glyph glyph-name="germandbls" unicode="&#xdf;" horiz-adv-x="485" 
d="M440 230q0 -113 -51 -171.5t-139 -58.5h-60v65h60q22 0 44 10.5t38.5 31t27 51.5t10.5 72q0 37 -12.5 68.5t-32.5 54t-45 35t-50 12.5h-40v65h40q25 0 44 9t31.5 25t18.5 36.5t6 44.5q0 41 -26 63t-74 22q-41 0 -65.5 -29.5t-24.5 -77.5v-558h-70v558q0 42 12.5 74t34 54
t50.5 33t63 11t64.5 -9.5t54 -28.5t37.5 -47t14 -65q0 -60 -21.5 -91.5t-58.5 -53.5q22 -11 44 -26.5t38.5 -38.5t27 -57t10.5 -83z" />
    <glyph glyph-name="agrave" unicode="&#xe0;" 
d="M220 500l-90 120h90l60 -120h-60zM380 200q0 68 -36 109t-104 41q-25 0 -48.5 -11t-41.5 -30.5t-29 -47t-11 -61.5q0 -32 11 -59.5t29 -47.5t41.5 -31.5t48.5 -11.5q68 0 104 41t36 109zM380 0v50h-2q-29 -34 -65 -49.5t-78 -15.5q-41 0 -76.5 15.5t-62 44t-41.5 68
t-15 87.5t15 87.5t41.5 68t62 44t76.5 15.5q42 0 78 -15.5t65 -49.5h2v50h70v-400h-70z" />
    <glyph glyph-name="aacute" unicode="&#xe1;" 
d="M260 500h-60l60 120h90zM380 200q0 68 -36 109t-104 41q-25 0 -48.5 -11t-41.5 -30.5t-29 -47t-11 -61.5q0 -32 11 -59.5t29 -47.5t41.5 -31.5t48.5 -11.5q68 0 104 41t36 109zM380 0v50h-2q-29 -34 -65 -49.5t-78 -15.5q-41 0 -76.5 15.5t-62 44t-41.5 68t-15 87.5
t15 87.5t41.5 68t62 44t76.5 15.5q42 0 78 -15.5t65 -49.5h2v50h70v-400h-70z" />
    <glyph glyph-name="acircumflex" unicode="&#xe2;" 
d="M287 500l-40 80l-40 -80h-70l80 120h60l80 -120h-70zM380 200q0 68 -36 109t-104 41q-25 0 -48.5 -11t-41.5 -30.5t-29 -47t-11 -61.5q0 -32 11 -59.5t29 -47.5t41.5 -31.5t48.5 -11.5q68 0 104 41t36 109zM380 0v50h-2q-29 -34 -65 -49.5t-78 -15.5q-41 0 -76.5 15.5
t-62 44t-41.5 68t-15 87.5t15 87.5t41.5 68t62 44t76.5 15.5q42 0 78 -15.5t65 -49.5h2v50h70v-400h-70z" />
    <glyph glyph-name="atilde" unicode="&#xe3;" 
d="M380 570q0 -45 -15 -62.5t-45 -17.5q-19 0 -37.5 7t-35 15.5t-31.5 15.5t-26 7t-15.5 -6t-4.5 -29h-50v20q0 45 15 62.5t45 17.5q19 0 37.5 -7t35 -15.5t31.5 -15.5t26 -7t15.5 6t4.5 29h50v-20zM380 200q0 68 -36 109t-104 41q-25 0 -48.5 -11t-41.5 -30.5t-29 -47
t-11 -61.5q0 -32 11 -59.5t29 -47.5t41.5 -31.5t48.5 -11.5q68 0 104 41t36 109zM380 0v50h-2q-29 -34 -65 -49.5t-78 -15.5q-41 0 -76.5 15.5t-62 44t-41.5 68t-15 87.5t15 87.5t41.5 68t62 44t76.5 15.5q42 0 78 -15.5t65 -49.5h2v50h70v-400h-70z" />
    <glyph glyph-name="adieresis" unicode="&#xe4;" 
d="M140 500v80h70v-80h-70zM290 500v80h70v-80h-70zM380 200q0 68 -36 109t-104 41q-25 0 -48.5 -11t-41.5 -30.5t-29 -47t-11 -61.5q0 -32 11 -59.5t29 -47.5t41.5 -31.5t48.5 -11.5q68 0 104 41t36 109zM380 0v50h-2q-29 -34 -65 -49.5t-78 -15.5q-41 0 -76.5 15.5t-62 44
t-41.5 68t-15 87.5t15 87.5t41.5 68t62 44t76.5 15.5q42 0 78 -15.5t65 -49.5h2v50h70v-400h-70z" />
    <glyph glyph-name="aring" unicode="&#xe5;" 
d="M285 560q0 14 -10.5 24.5t-24.5 10.5t-24.5 -10.5t-10.5 -24.5t10.5 -24.5t24.5 -10.5t24.5 10.5t10.5 24.5zM330 560q0 -33 -23.5 -56.5t-56.5 -23.5t-56.5 23.5t-23.5 56.5t23.5 56.5t56.5 23.5t56.5 -23.5t23.5 -56.5zM380 200q0 68 -36 109t-104 41q-25 0 -48.5 -11
t-41.5 -30.5t-29 -47t-11 -61.5q0 -32 11 -59.5t29 -47.5t41.5 -31.5t48.5 -11.5q68 0 104 41t36 109zM380 0v50h-2q-29 -34 -65 -49.5t-78 -15.5q-41 0 -76.5 15.5t-62 44t-41.5 68t-15 87.5t15 87.5t41.5 68t62 44t76.5 15.5q42 0 78 -15.5t65 -49.5h2v50h70v-400h-70z
" />
    <glyph glyph-name="ae" unicode="&#xe6;" horiz-adv-x="820" 
d="M385 200q0 69 -38 109.5t-107 40.5q-25 0 -48.5 -11t-41.5 -30.5t-29 -47t-11 -61.5q0 -32 11 -59.5t29 -47.5t41.5 -31.5t48.5 -11.5q69 0 107 40.5t38 109.5zM706 245q-5 19 -14.5 37.5t-25 33.5t-37 24.5t-49.5 9.5q-27 0 -48.5 -10t-37.5 -25.5t-26 -34t-13 -35.5
h251zM449 182q1 -27 12 -51t28 -42t40.5 -28.5t50.5 -10.5q41 0 70 14.5t53 44.5l59 -36q-41 -48 -84 -68t-98 -20q-37 0 -70 13t-58 36h-2v-34h-70v50h-2q-29 -34 -65 -49.5t-78 -15.5q-41 0 -76.5 15.5t-62 44t-41.5 68t-15 87.5t15 87.5t41.5 68t62 44t76.5 15.5
q42 0 78 -15.5t65 -49.5h2v50h70v-33h2q25 23 58 35.5t70 12.5q41 0 77.5 -15.5t63.5 -44t43 -68t16 -87.5v-18h-331z" />
    <glyph glyph-name="ccedilla" unicode="&#xe7;" horiz-adv-x="434" 
d="M270 -55q15 -26 13 -51.5t-14 -47t-31 -38t-38 -23.5l-30 20q11 7 21.5 23t16 35.5t4.5 41t-12 40.5h70zM404 73q-17 -21 -33.5 -37t-35 -27.5t-42 -17.5t-53.5 -6q-41 0 -77.5 15.5t-63.5 44t-43 68t-16 87.5t16 87.5t43 68t63.5 44t77.5 15.5q48 0 88.5 -18.5
t70.5 -60.5l-44 -41q-18 24 -47.5 39.5t-67.5 15.5q-30 0 -54.5 -12t-41 -32.5t-25.5 -47.5t-9 -58t9 -58t25.5 -47.5t41 -32.5t54.5 -12q38 0 64 16.5t51 46.5z" />
    <glyph glyph-name="egrave" unicode="&#xe8;" horiz-adv-x="480" 
d="M220 500l-90 120h90l60 -120h-60zM366 245q-5 19 -14.5 37.5t-25 33.5t-37 24.5t-49.5 9.5q-27 0 -48.5 -10t-37.5 -25.5t-26 -34t-13 -35.5h251zM109 182q1 -27 12 -51t28 -42t40.5 -28.5t50.5 -10.5q41 0 70 14.5t53 44.5l59 -36q-41 -48 -84 -68t-98 -20
q-41 0 -77.5 15.5t-63.5 44t-43 68t-16 87.5t16 88t43 68t63.5 43.5t77.5 15.5t77.5 -15.5t63.5 -44t43 -68t16 -87.5v-18h-331z" />
    <glyph glyph-name="eacute" unicode="&#xe9;" horiz-adv-x="480" 
d="M260 500h-60l60 120h90zM366 245q-5 19 -14.5 37.5t-25 33.5t-37 24.5t-49.5 9.5q-27 0 -48.5 -10t-37.5 -25.5t-26 -34t-13 -35.5h251zM109 182q1 -27 12 -51t28 -42t40.5 -28.5t50.5 -10.5q41 0 70 14.5t53 44.5l59 -36q-41 -48 -84 -68t-98 -20q-41 0 -77.5 15.5
t-63.5 44t-43 68t-16 87.5t16 88t43 68t63.5 43.5t77.5 15.5t77.5 -15.5t63.5 -44t43 -68t16 -87.5v-18h-331z" />
    <glyph glyph-name="ecircumflex" unicode="&#xea;" horiz-adv-x="480" 
d="M280 500l-40 80l-40 -80h-70l80 120h60l80 -120h-70zM366 245q-5 19 -14.5 37.5t-25 33.5t-37 24.5t-49.5 9.5q-27 0 -48.5 -10t-37.5 -25.5t-26 -34t-13 -35.5h251zM109 182q1 -27 12 -51t28 -42t40.5 -28.5t50.5 -10.5q41 0 70 14.5t53 44.5l59 -36q-41 -48 -84 -68
t-98 -20q-41 0 -77.5 15.5t-63.5 44t-43 68t-16 87.5t16 88t43 68t63.5 43.5t77.5 15.5t77.5 -15.5t63.5 -44t43 -68t16 -87.5v-18h-331z" />
    <glyph glyph-name="edieresis" unicode="&#xeb;" horiz-adv-x="480" 
d="M130 500v80h70v-80h-70zM280 500v80h70v-80h-70zM366 245q-5 19 -14.5 37.5t-25 33.5t-37 24.5t-49.5 9.5q-27 0 -48.5 -10t-37.5 -25.5t-26 -34t-13 -35.5h251zM109 182q1 -27 12 -51t28 -42t40.5 -28.5t50.5 -10.5q41 0 70 14.5t53 44.5l59 -36q-41 -48 -84 -68
t-98 -20q-41 0 -77.5 15.5t-63.5 44t-43 68t-16 87.5t16 88t43 68t63.5 43.5t77.5 15.5t77.5 -15.5t63.5 -44t43 -68t16 -87.5v-18h-331z" />
    <glyph glyph-name="igrave" unicode="&#xec;" horiz-adv-x="210" 
d="M80 500l-90 120h90l60 -120h-60zM70 0v400h70v-400h-70z" />
    <glyph glyph-name="iacute" unicode="&#xed;" horiz-adv-x="210" 
d="M130 500h-60l60 120h90zM70 0v400h70v-400h-70z" />
    <glyph glyph-name="icircumflex" unicode="&#xee;" horiz-adv-x="210" 
d="M145 500l-40 80l-40 -80h-70l80 120h60l80 -120h-70zM70 0v400h70v-400h-70z" />
    <glyph glyph-name="idieresis" unicode="&#xef;" horiz-adv-x="210" 
d="M-5 500v80h70v-80h-70zM145 500v80h70v-80h-70zM70 0v400h70v-400h-70z" />
    <glyph glyph-name="eth" unicode="&#xf0;" 
d="M380 200q0 68 -36 109t-104 41q-25 0 -48.5 -11t-41.5 -30.5t-29 -47t-11 -61.5q0 -32 11 -59.5t29 -47.5t41.5 -31.5t48.5 -11.5q68 0 104 41t36 109zM490 550h-40v-550h-70v50q-30 -34 -66.5 -49.5t-78.5 -15.5q-41 0 -76.5 15.5t-62 44t-41.5 68t-15 87.5t15 87.5
t41.5 68t62 44t76.5 15.5q42 0 78.5 -15.5t66.5 -49.5v200h-140l10 70h130v110h70v-110h50z" />
    <glyph glyph-name="ntilde" unicode="&#xf1;" horiz-adv-x="480" 
d="M370 570q0 -45 -15 -62.5t-45 -17.5q-19 0 -37.5 7t-35 15.5t-31.5 15.5t-26 7t-15.5 -6t-4.5 -29h-50v20q0 45 15 62.5t45 17.5q19 0 37.5 -7t35 -15.5t31.5 -15.5t26 -7t15.5 6t4.5 29h50v-20zM345 0v248q0 46 -19 74t-65 28q-53 0 -87 -31.5t-34 -100.5v-218h-70v400
h70v-50h2q22 34 55.5 49.5t75.5 15.5q69 0 105.5 -42.5t36.5 -117.5v-255h-70z" />
    <glyph glyph-name="ograve" unicode="&#xf2;" horiz-adv-x="490" 
d="M220 500l-90 120h90l60 -120h-60zM380 200q0 32 -10.5 59.5t-28.5 47.5t-42.5 31.5t-53.5 11.5t-53.5 -11.5t-42.5 -31.5t-28.5 -47.5t-10.5 -59.5q0 -33 10.5 -60.5t28.5 -47.5t42.5 -31t53.5 -11t53.5 11t42.5 31t28.5 47.5t10.5 60.5zM450 200q0 -51 -16.5 -90.5
t-44.5 -67.5t-65.5 -42.5t-78.5 -14.5t-78.5 14.5t-65.5 42.5t-44.5 67.5t-16.5 90.5t16 90.5t43.5 67.5t65 42.5t80.5 14.5q41 0 78.5 -14.5t65.5 -42.5t44.5 -67.5t16.5 -90.5z" />
    <glyph glyph-name="oacute" unicode="&#xf3;" horiz-adv-x="490" 
d="M270 500h-60l60 120h90zM380 200q0 32 -10.5 59.5t-28.5 47.5t-42.5 31.5t-53.5 11.5t-53.5 -11.5t-42.5 -31.5t-28.5 -47.5t-10.5 -59.5q0 -33 10.5 -60.5t28.5 -47.5t42.5 -31t53.5 -11t53.5 11t42.5 31t28.5 47.5t10.5 60.5zM450 200q0 -51 -16.5 -90.5t-44.5 -67.5
t-65.5 -42.5t-78.5 -14.5t-78.5 14.5t-65.5 42.5t-44.5 67.5t-16.5 90.5t16 90.5t43.5 67.5t65 42.5t80.5 14.5q41 0 78.5 -14.5t65.5 -42.5t44.5 -67.5t16.5 -90.5z" />
    <glyph glyph-name="ocircumflex" unicode="&#xf4;" horiz-adv-x="490" 
d="M283 500l-40 80l-40 -80h-70l80 120h60l80 -120h-70zM380 200q0 32 -10.5 59.5t-28.5 47.5t-42.5 31.5t-53.5 11.5t-53.5 -11.5t-42.5 -31.5t-28.5 -47.5t-10.5 -59.5q0 -33 10.5 -60.5t28.5 -47.5t42.5 -31t53.5 -11t53.5 11t42.5 31t28.5 47.5t10.5 60.5zM450 200
q0 -51 -16.5 -90.5t-44.5 -67.5t-65.5 -42.5t-78.5 -14.5t-78.5 14.5t-65.5 42.5t-44.5 67.5t-16.5 90.5t16 90.5t43.5 67.5t65 42.5t80.5 14.5q41 0 78.5 -14.5t65.5 -42.5t44.5 -67.5t16.5 -90.5z" />
    <glyph glyph-name="otilde" unicode="&#xf5;" horiz-adv-x="490" 
d="M373 570q0 -45 -15 -62.5t-45 -17.5q-19 0 -37.5 7t-35 15.5t-31.5 15.5t-26 7t-15.5 -6t-4.5 -29h-50v20q0 45 15 62.5t45 17.5q19 0 37.5 -7t35 -15.5t31.5 -15.5t26 -7t15.5 6t4.5 29h50v-20zM380 200q0 32 -10.5 59.5t-28.5 47.5t-42.5 31.5t-53.5 11.5t-53.5 -11.5
t-42.5 -31.5t-28.5 -47.5t-10.5 -59.5q0 -33 10.5 -60.5t28.5 -47.5t42.5 -31t53.5 -11t53.5 11t42.5 31t28.5 47.5t10.5 60.5zM450 200q0 -51 -16.5 -90.5t-44.5 -67.5t-65.5 -42.5t-78.5 -14.5t-78.5 14.5t-65.5 42.5t-44.5 67.5t-16.5 90.5t16 90.5t43.5 67.5t65 42.5
t80.5 14.5q41 0 78.5 -14.5t65.5 -42.5t44.5 -67.5t16.5 -90.5z" />
    <glyph glyph-name="odieresis" unicode="&#xf6;" horiz-adv-x="490" 
d="M133 500v80h70v-80h-70zM283 500v80h70v-80h-70zM380 200q0 32 -10.5 59.5t-28.5 47.5t-42.5 31.5t-53.5 11.5t-53.5 -11.5t-42.5 -31.5t-28.5 -47.5t-10.5 -59.5q0 -33 10.5 -60.5t28.5 -47.5t42.5 -31t53.5 -11t53.5 11t42.5 31t28.5 47.5t10.5 60.5zM450 200
q0 -51 -16.5 -90.5t-44.5 -67.5t-65.5 -42.5t-78.5 -14.5t-78.5 14.5t-65.5 42.5t-44.5 67.5t-16.5 90.5t16 90.5t43.5 67.5t65 42.5t80.5 14.5q41 0 78.5 -14.5t65.5 -42.5t44.5 -67.5t16.5 -90.5z" />
    <glyph glyph-name="divide" unicode="&#xf7;" horiz-adv-x="550" 
d="M310 80h-70v80h70v-80v0zM490 270h-430v70h430v-70v0zM310 450h-70v80h70v-80v0z" />
    <glyph glyph-name="oslash" unicode="&#xf8;" horiz-adv-x="490" 
d="M380 200q0 52 -18 87l-202 -212q31 -25 85 -25q29 0 53.5 11t42.5 31t28.5 47.5t10.5 60.5zM330 325q-32 25 -85 25q-29 0 -53.5 -11.5t-42.5 -31.5t-28.5 -47.5t-10.5 -59.5q0 -53 18 -87zM450 200q0 -51 -16.5 -90.5t-44.5 -67.5t-65.5 -42.5t-78.5 -14.5
q-74 0 -129 44l-41 -44l-35 35l42 44q-20 26 -31 60t-11 76q0 51 16 90.5t43.5 67.5t65 42.5t80.5 14.5q74 0 129 -44l41 44l35 -35l-42 -44q20 -26 31 -60t11 -76z" />
    <glyph glyph-name="ugrave" unicode="&#xf9;" horiz-adv-x="480" 
d="M220 500l-90 120h90l60 -120h-60zM340 0v50q-23 -34 -57 -49.5t-76 -15.5q-69 0 -105.5 42.5t-36.5 117.5v255h70v-248q0 -46 19 -74t65 -28q53 0 87 31.5t34 100.5v218h70v-400h-70z" />
    <glyph glyph-name="uacute" unicode="&#xfa;" horiz-adv-x="480" 
d="M250 500h-60l60 120h90zM340 0v50q-23 -34 -57 -49.5t-76 -15.5q-69 0 -105.5 42.5t-36.5 117.5v255h70v-248q0 -46 19 -74t65 -28q53 0 87 31.5t34 100.5v218h70v-400h-70z" />
    <glyph glyph-name="ucircumflex" unicode="&#xfb;" horiz-adv-x="480" 
d="M275 500l-40 80l-40 -80h-70l80 120h60l80 -120h-70zM340 0v50q-23 -34 -57 -49.5t-76 -15.5q-69 0 -105.5 42.5t-36.5 117.5v255h70v-248q0 -46 19 -74t65 -28q53 0 87 31.5t34 100.5v218h70v-400h-70z" />
    <glyph glyph-name="udieresis" unicode="&#xfc;" horiz-adv-x="480" 
d="M125 500v80h70v-80h-70zM275 500v80h70v-80h-70zM340 0v50q-23 -34 -57 -49.5t-76 -15.5q-69 0 -105.5 42.5t-36.5 117.5v255h70v-248q0 -46 19 -74t65 -28q53 0 87 31.5t34 100.5v218h70v-400h-70z" />
    <glyph glyph-name="yacute" unicode="&#xfd;" horiz-adv-x="387" 
d="M210 500h-60l60 120h90zM137 -190h-73l102 244l-166 346h76l125 -264l109 264h72z" />
    <glyph glyph-name="thorn" unicode="&#xfe;" 
d="M410 200q0 34 -11 61.5t-29 47t-41.5 30.5t-48.5 11q-69 0 -107 -40.5t-38 -109.5t38 -109.5t107 -40.5q25 0 48.5 11.5t41.5 31.5t29 47.5t11 59.5zM480 200q0 -48 -15 -87.5t-41.5 -68t-62 -44t-76.5 -15.5q-42 0 -78.5 15.5t-66.5 49.5v-240h-70v920h70v-380
q30 34 66.5 49.5t78.5 15.5q41 0 76.5 -15.5t62 -44t41.5 -68t15 -87.5z" />
    <glyph glyph-name="ydieresis" unicode="&#xff;" horiz-adv-x="387" 
d="M90 500v80h70v-80h-70zM240 500v80h70v-80h-70zM137 -190h-73l102 244l-166 346h76l125 -264l109 264h72z" />
    <glyph glyph-name="dotlessi" unicode="&#x131;" horiz-adv-x="210" 
d="M70 0v400h70v-400h-70z" />
    <glyph glyph-name="Lslash" unicode="&#x141;" horiz-adv-x="425" 
d="M400 0h-310v270l-50 -50v90l50 50v360h75v-285l105 105v-90l-105 -105v-275h245z" />
    <glyph glyph-name="lslash" unicode="&#x142;" horiz-adv-x="210" 
d="M140 335v-335h-70v265l-55 -55v90l55 55v375h70v-305l55 55v-90z" />
    <glyph glyph-name="OE" unicode="&#x152;" horiz-adv-x="1074" 
d="M675 360q0 63 -21 119t-58 98.5t-87.5 67.5t-108.5 25q-57 0 -107.5 -25t-87.5 -67.5t-58.5 -98.5t-21.5 -119t21.5 -119t58.5 -98.5t87.5 -67.5t107.5 -25q58 0 108.5 25t87.5 67.5t58 98.5t21 119zM1015 0h-345v112h-2q-48 -61 -115.5 -96.5t-152.5 -35.5
q-76 0 -140 29t-110.5 80t-73 120.5t-26.5 150.5t26.5 150.5t73 120.5t110.5 80t140 29q85 0 152.5 -35t115.5 -97h2v112h327l9 -70h-261v-245h225v-70h-225v-265h279z" />
    <glyph glyph-name="oe" unicode="&#x153;" horiz-adv-x="820" 
d="M380 200q0 32 -10.5 59.5t-28.5 47.5t-42.5 31.5t-53.5 11.5t-53.5 -11.5t-42.5 -31.5t-28.5 -47.5t-10.5 -59.5q0 -33 10.5 -60.5t28.5 -47.5t42.5 -31t53.5 -11t53.5 11t42.5 31t28.5 47.5t10.5 60.5zM706 245q-5 19 -14.5 37.5t-25 33.5t-37 24.5t-49.5 9.5
q-27 0 -48.5 -10t-37.5 -25.5t-26 -34t-13 -35.5h251zM449 182q1 -27 12 -51t28 -42t40.5 -28.5t50.5 -10.5q41 0 70 14.5t53 44.5l59 -36q-41 -48 -84 -68t-98 -20q-51 0 -94 24t-71 66q-27 -44 -72 -67t-98 -23q-41 0 -78.5 14.5t-65.5 42.5t-44.5 67.5t-16.5 90.5
t16 90.5t43.5 67.5t65 42.5t80.5 14.5q52 0 97 -23t73 -67q27 43 70.5 66.5t94.5 23.5q41 0 77.5 -15.5t63.5 -44t43 -68t16 -87.5v-18h-331z" />
    <glyph glyph-name="Scaron" unicode="&#x160;" horiz-adv-x="535" 
d="M315 780h-60l-80 120h70l40 -80l40 80h70zM495 180q0 -41 -13.5 -77.5t-40 -63.5t-65 -43t-89.5 -16q-84 0 -145.5 33.5t-106.5 86.5l60 50q41 -53 85.5 -76.5t104.5 -23.5t97.5 35t37.5 95q0 47 -24.5 78.5t-61 55t-79.5 44.5t-79.5 48.5t-61 65.5t-24.5 97
q0 45 16.5 77.5t43.5 53.5t62 30.5t73 9.5q60 0 105 -21t75 -59l-45 -55q-19 26 -54.5 45.5t-80.5 19.5q-53 0 -86.5 -23.5t-33.5 -76.5q0 -45 24.5 -73.5t61 -51t79.5 -42.5t79.5 -48.5t61 -69.5t24.5 -105z" />
    <glyph glyph-name="scaron" unicode="&#x161;" horiz-adv-x="385" 
d="M220 500h-60l-80 120h70l40 -80l40 80h70zM335 110q0 -26 -8 -49t-24.5 -40t-43.5 -26.5t-64 -9.5q-60 0 -98.5 22.5t-61.5 52.5l45 55q15 -23 46 -44t69 -21t54 15t16 45q0 17 -15 29t-37 22.5t-48 21t-48 26t-37 37t-15 54.5q0 30 10.5 51.5t28.5 36t41.5 21t49.5 6.5
q34 0 70.5 -12.5t59.5 -42.5l-40 -50q-23 23 -45 31.5t-45 8.5q-30 0 -45 -13.5t-15 -36.5q0 -18 15 -29t37 -20.5t48 -19.5t48 -25t37 -38t15 -58z" />
    <glyph glyph-name="Ydieresis" unicode="&#x178;" horiz-adv-x="530" 
d="M155 780v80h70v-80h-70zM305 780v80h70v-80h-70zM301 252v-252h-74v252l-227 468h85l180 -380l180 380h85z" />
    <glyph glyph-name="Zcaron" unicode="&#x17d;" horiz-adv-x="516" 
d="M280 780h-60l-80 120h70l40 -80l40 80h70zM463 0h-423v45l325 605h-325l18 70h407v-45l-325 -605h341z" />
    <glyph glyph-name="zcaron" unicode="&#x17e;" horiz-adv-x="382" 
d="M220 500h-60l-80 120h70l40 -80l40 80h70zM143 65h197l-20 -65h-300l215 335h-185l20 65h287z" />
    <glyph glyph-name="florin" unicode="&#x192;" horiz-adv-x="457" 
d="M436 635h-20q-27 0 -45 -3.5t-29 -11.5t-17 -23t-10 -37l-28 -160h108l-12 -65h-108l-68 -385q-12 -68 -45.5 -104t-100.5 -36h-61l12 65h20q27 0 44.5 3.5t29 11.5t17.5 22.5t10 37.5l68 385h-98l12 65h98l28 160q12 69 45 104.5t100 35.5h61z" />
    <glyph glyph-name="circumflex" unicode="&#x2c6;" horiz-adv-x="300" 
d="M190 500l-40 80l-40 -80h-70l80 120h60l80 -120h-70z" />
    <glyph glyph-name="caron" unicode="&#x2c7;" horiz-adv-x="300" 
d="M180 500h-60l-80 120h70l40 -80l40 80h70z" />
    <glyph glyph-name="breve" unicode="&#x2d8;" horiz-adv-x="300" 
d="M260 620q0 -30 -4.5 -54t-16.5 -41t-33.5 -26t-55.5 -9t-55.5 9t-33.5 26t-16.5 41t-4.5 54h55q0 -38 14.5 -54t40.5 -16t40.5 16t14.5 54h55z" />
    <glyph glyph-name="dotaccent" unicode="&#x2d9;" horiz-adv-x="150" 
d="M40 500v80h70v-80h-70z" />
    <glyph glyph-name="ring" unicode="&#x2da;" horiz-adv-x="240" 
d="M155 560q0 14 -10.5 24.5t-24.5 10.5t-24.5 -10.5t-10.5 -24.5t10.5 -24.5t24.5 -10.5t24.5 10.5t10.5 24.5zM200 560q0 -33 -23.5 -56.5t-56.5 -23.5t-56.5 23.5t-23.5 56.5t23.5 56.5t56.5 23.5t56.5 -23.5t23.5 -56.5z" />
    <glyph glyph-name="ogonek" unicode="&#x2db;" horiz-adv-x="170" 
d="M120 -220q-41 0 -64 13.5t-29.5 36t2 51.5t31.5 59h60q-60 -90 30 -90z" />
    <glyph glyph-name="tilde" unicode="&#x2dc;" horiz-adv-x="340" 
d="M300 570q0 -45 -15 -62.5t-45 -17.5q-19 0 -37.5 7t-35 15.5t-31.5 15.5t-26 7t-15.5 -6t-4.5 -29h-50v20q0 45 15 62.5t45 17.5q19 0 37.5 -7t35 -15.5t31.5 -15.5t26 -7t15.5 6t4.5 29h50v-20z" />
    <glyph glyph-name="hungarumlaut" unicode="&#x2dd;" horiz-adv-x="370" 
d="M100 500h-60l60 120h90zM240 500h-60l60 120h90z" />
    <glyph glyph-name="endash" unicode="&#x2013;" horiz-adv-x="610" 
d="M90 180v70h430v-70h-430z" />
    <glyph glyph-name="emdash" unicode="&#x2014;" horiz-adv-x="940" 
d="M40 180v70h860v-70h-860z" />
    <glyph glyph-name="quoteleft" unicode="&#x2018;" horiz-adv-x="255" 
d="M195 720q-19 -30 -24.5 -60t-5.5 -60v-75h-75v75q0 49 21 85t44 55z" />
    <glyph glyph-name="quoteright" unicode="&#x2019;" horiz-adv-x="255" 
d="M165 645q0 -49 -21 -85t-44 -55l-40 20q19 30 24.5 60t5.5 60v75h75v-75z" />
    <glyph glyph-name="quotesinglbase" unicode="&#x201a;" horiz-adv-x="255" 
d="M165 10q0 -49 -21 -85t-44 -55l-40 20q19 30 24.5 60t5.5 60v75h75v-75z" />
    <glyph glyph-name="quotedblleft" unicode="&#x201c;" horiz-adv-x="395" 
d="M195 720q-19 -30 -24.5 -60t-5.5 -60v-75h-75v75q0 49 21 85t44 55zM335 720q-19 -30 -24.5 -60t-5.5 -60v-75h-75v75q0 49 21 85t44 55z" />
    <glyph glyph-name="quotedblright" unicode="&#x201d;" horiz-adv-x="395" 
d="M165 645q0 -49 -21 -85t-44 -55l-40 20q19 30 24.5 60t5.5 60v75h75v-75zM305 645q0 -49 -21 -85t-44 -55l-40 20q19 30 24.5 60t5.5 60v75h75v-75z" />
    <glyph glyph-name="quotedblbase" unicode="&#x201e;" horiz-adv-x="395" 
d="M165 10q0 -49 -21 -85t-44 -55l-40 20q19 30 24.5 60t5.5 60v75h75v-75zM305 10q0 -49 -21 -85t-44 -55l-40 20q19 30 24.5 60t5.5 60v75h75v-75z" />
    <glyph glyph-name="dagger" unicode="&#x2020;" horiz-adv-x="525" 
d="M300 390v-580h-75v580h-215v70h215v220h75v-220h215v-70h-215z" />
    <glyph glyph-name="daggerdbl" unicode="&#x2021;" horiz-adv-x="525" 
d="M300 30v-220h-75v220h-215v70h215v290h-215v70h215v220h75v-220h215v-70h-215v-290h215v-70h-215z" />
    <glyph glyph-name="bullet" unicode="&#x2022;" horiz-adv-x="380" 
d="M340 265q0 -31 -12 -58.5t-32 -47.5t-47.5 -32t-58.5 -12t-58.5 12t-47.5 32t-32 47.5t-12 58.5t12 58.5t32 47.5t47.5 32t58.5 12t58.5 -12t47.5 -32t32 -47.5t12 -58.5z" />
    <glyph glyph-name="ellipsis" unicode="&#x2026;" horiz-adv-x="695" 
d="M90 0v85h75v-85h-75zM310 0v85h75v-85h-75zM530 0v85h75v-85h-75z" />
    <glyph glyph-name="perthousand" unicode="&#x2030;" horiz-adv-x="1130" 
d="M990 150q0 53 -20 81.5t-50 28.5t-50 -28.5t-20 -81.5t20 -81.5t50 -28.5t50 28.5t20 81.5zM1050 150q0 -38 -10.5 -69t-28.5 -53.5t-41.5 -35t-49.5 -12.5t-49.5 12.5t-41.5 35t-28.5 53.5t-10.5 69q0 37 10.5 68.5t28.5 54t41.5 35t49.5 12.5t49.5 -12.5t41.5 -35
t28.5 -54t10.5 -68.5zM660 150q0 53 -20 81.5t-50 28.5t-50 -28.5t-20 -81.5t20 -81.5t50 -28.5t50 28.5t20 81.5zM720 150q0 -38 -10.5 -69t-28.5 -53.5t-41.5 -35t-49.5 -12.5t-49.5 12.5t-41.5 35t-28.5 53.5t-10.5 69q0 37 10.5 68.5t28.5 54t41.5 35t49.5 12.5
t49.5 -12.5t41.5 -35t28.5 -54t10.5 -68.5zM230 0h-70l410 680h70zM280 530q0 53 -20 81.5t-50 28.5t-50 -28.5t-20 -81.5t20 -81.5t50 -28.5t50 28.5t20 81.5zM340 530q0 -38 -10.5 -69t-28.5 -53.5t-41.5 -35t-49.5 -12.5t-49.5 12.5t-41.5 35t-28.5 53.5t-10.5 69
q0 37 10.5 68.5t28.5 54t41.5 35t49.5 12.5t49.5 -12.5t41.5 -35t28.5 -54t10.5 -68.5z" />
    <glyph glyph-name="guilsinglleft" unicode="&#x2039;" horiz-adv-x="270" 
d="M160 110l-110 110l110 110l40 -40l-70 -70l70 -70z" />
    <glyph glyph-name="guilsinglright" unicode="&#x203a;" horiz-adv-x="270" 
d="M110 110l-40 40l70 70l-70 70l40 40l110 -110z" />
    <glyph glyph-name="fraction" unicode="&#x2044;" horiz-adv-x="480" 
d="M70 0h-70l410 680h70z" />
    <glyph glyph-name="fraction" unicode="&#x2215;" horiz-adv-x="480" 
d="M70 0h-70l410 680h70z" />
    <glyph glyph-name="trademark" unicode="&#x2122;" horiz-adv-x="700" 
d="M160 660v-300h-60v300h-90v60h240v-60h-90zM590 360v250l-120 -200l-120 200v-250h-60v360h63l117 -200l117 200h63v-360h-60z" />
    <glyph glyph-name="minus" unicode="&#x2212;" horiz-adv-x="550" 
d="M60 270v70h430v-70h-430z" />
  </font>
</defs>
</svg>
